<svg version="1.1" viewBox="0 0 1000 1000" xmlns="http://www.w3.org/2000/svg" height="275" width="275">
  <g transform="matrix(1.0001 0 0 .98999 -.072329 .033944)">
    <g transform="matrix(1.7319 0 0 1.8248 -442 -310.92)">
      <path d="m398.42 173.63v103.24l-14.333 16.172 12.613 12.613v65.906a61.295 99.177 0 0056.703-55.13 61.295 99.177 0 00-27.793-132.73l-.38634-.30701a61.295 99.177 0 00-26.805-9.7734z" style="fill:none;stroke-linecap:round;stroke-linejoin:round;stroke-width:6.5497;stroke:#000"/>
      <path d="m429.64 258.08-20.123 15.443 20.123 9.3981 21.098-9.3981z" style="stroke-dashoffset:3.7;stroke-linecap:round;stroke-linejoin:round;stroke-width:5.5842;stroke:#000"/>
      <path d="m398.43 441.1v-39.295a61.295 99.177 0 01-26.997-9.978 61.295 99.177 0 01-29.328-49.985 138.6 46.2 0 00-68.214 21.865 138.6 46.2 0 00-13.882 20.335h-.11763v1.2281a138.6 46.2 0 000 .0358v55.795z" style="stroke-width:6.5497;stroke:#000"/>
      <path d="m454.77 341.83a61.295 99.177 0 01-1.3611 4.8022 61.295 99.177 0 01-54.981 55.178v39.295h138.54v-56.03a138.6 46.2 0 00-77.056-42.494l-.875-.14327a138.6 46.2 0 00-4.2675-.60891z" style="fill:none;stroke-width:6.5497;stroke:#000"/>
      <path d="m398.42 173.63a61.295 99.177 0 00-55.076 55.439 61.295 99.177 0 0028.078 132.57 61.295 99.177 0 0025.277 9.9297v-65.906l-12.613-12.613 14.334-16.172zm-32.818 84.449 20.123 15.443-20.123 9.3984-21.098-9.3984z" style="stroke-linecap:round;stroke-linejoin:round;stroke-width:6.5497;stroke:#000"/>
    </g>
    <g transform="matrix(-1.7319 0 0 1.8248 1444.4 -310.92)">
      <path d="m398.42 173.63v103.24l-14.333 16.172 12.613 12.613v65.906a61.295 99.177 0 0056.703-55.13 61.295 99.177 0 00-27.793-132.73l-.38634-.30701a61.295 99.177 0 00-26.805-9.7734z" style="fill:none;stroke-linecap:round;stroke-linejoin:round;stroke-width:6.5497;stroke:#000"/>
      <path d="m429.64 258.08-20.123 15.443 20.123 9.3981 21.098-9.3981z" style="stroke-dashoffset:3.7;stroke-linecap:round;stroke-linejoin:round;stroke-width:5.5842;stroke:#000"/>
      <path d="m398.43 441.1v-39.295a61.295 99.177 0 01-26.997-9.978 61.295 99.177 0 01-29.328-49.985 138.6 46.2 0 00-68.214 21.865 138.6 46.2 0 00-13.882 20.335h-.11763v1.2281a138.6 46.2 0 000 .0358v55.795z" style="stroke-width:6.5497;stroke:#000"/>
      <path d="m454.77 341.83a61.295 99.177 0 01-1.3611 4.8022 61.295 99.177 0 01-54.981 55.178v39.295h138.54v-56.03a138.6 46.2 0 00-77.056-42.494l-.875-.14327a138.6 46.2 0 00-4.2675-.60891z" style="fill:none;stroke-width:6.5497;stroke:#000"/>
      <path d="m398.42 173.63a61.295 99.177 0 00-55.076 55.439 61.295 99.177 0 0028.078 132.57 61.295 99.177 0 0025.277 9.9297v-65.906l-12.613-12.613 14.334-16.172zm-32.818 84.449 20.123 15.443-20.123 9.3984-21.098-9.3984z" style="stroke-linecap:round;stroke-linejoin:round;stroke-width:6.5497;stroke:#000"/>
    </g>
  </g>
  <g transform="matrix(1.0001 0 0 .98999 -.072329 9.9379)">
    <g transform="matrix(1.7319 0 0 1.8248 -444.39 189.12)">
      <path d="m398.42 173.63v103.24l-14.333 16.172 12.613 12.613v65.906a61.295 99.177 0 0056.703-55.13 61.295 99.177 0 00-27.793-132.73l-.38634-.30701a61.295 99.177 0 00-26.805-9.7734z" style="fill:none;stroke-linecap:round;stroke-linejoin:round;stroke-width:6.5497;stroke:#000"/>
      <path d="m429.64 258.08-20.123 15.443 20.123 9.3981 21.098-9.3981z" style="stroke-dashoffset:3.7;stroke-linecap:round;stroke-linejoin:round;stroke-width:5.5842;stroke:#000"/>
      <path d="m398.43 441.1v-39.295a61.295 99.177 0 01-26.997-9.978 61.295 99.177 0 01-29.328-49.985 138.6 46.2 0 00-68.214 21.865 138.6 46.2 0 00-13.882 20.335h-.11763v1.2281a138.6 46.2 0 000 .0358v55.795z" style="stroke-width:6.5497;stroke:#000"/>
      <path d="m454.77 341.83a61.295 99.177 0 01-1.3611 4.8022 61.295 99.177 0 01-54.981 55.178v39.295h138.54v-56.03a138.6 46.2 0 00-77.056-42.494l-.875-.14327a138.6 46.2 0 00-4.2675-.60891z" style="fill:none;stroke-width:6.5497;stroke:#000"/>
      <path d="m398.42 173.63a61.295 99.177 0 00-55.076 55.439 61.295 99.177 0 0028.078 132.57 61.295 99.177 0 0025.277 9.9297v-65.906l-12.613-12.613 14.334-16.172zm-32.818 84.449 20.123 15.443-20.123 9.3984-21.098-9.3984z" style="stroke-linecap:round;stroke-linejoin:round;stroke-width:6.5497;stroke:#000"/>
    </g>
    <g transform="matrix(-1.7319 0 0 1.8248 1440.9 189.12)">
      <path d="m398.42 173.63v103.24l-14.333 16.172 12.613 12.613v65.906a61.295 99.177 0 0056.703-55.13 61.295 99.177 0 00-27.793-132.73l-.38634-.30701a61.295 99.177 0 00-26.805-9.7734z" style="fill:none;stroke-linecap:round;stroke-linejoin:round;stroke-width:6.5497;stroke:#000"/>
      <path d="m429.64 258.08-20.123 15.443 20.123 9.3981 21.098-9.3981z" style="stroke-dashoffset:3.7;stroke-linecap:round;stroke-linejoin:round;stroke-width:5.5842;stroke:#000"/>
      <path d="m398.43 441.1v-39.295a61.295 99.177 0 01-26.997-9.978 61.295 99.177 0 01-29.328-49.985 138.6 46.2 0 00-68.214 21.865 138.6 46.2 0 00-13.882 20.335h-.11763v1.2281a138.6 46.2 0 000 .0358v55.795z" style="stroke-width:6.5497;stroke:#000"/>
      <path d="m454.77 341.83a61.295 99.177 0 01-1.3611 4.8022 61.295 99.177 0 01-54.981 55.178v39.295h138.54v-56.03a138.6 46.2 0 00-77.056-42.494l-.875-.14327a138.6 46.2 0 00-4.2675-.60891z" style="fill:none;stroke-width:6.5497;stroke:#000"/>
      <path d="m398.42 173.63a61.295 99.177 0 00-55.076 55.439 61.295 99.177 0 0028.078 132.57 61.295 99.177 0 0025.277 9.9297v-65.906l-12.613-12.613 14.334-16.172zm-32.818 84.449 20.123 15.443-20.123 9.3984-21.098-9.3984z" style="stroke-linecap:round;stroke-linejoin:round;stroke-width:6.5497;stroke:#000"/>
    </g>
  </g>
</svg>
