<svg
  version="1.1"
  viewBox="0 0 210 210"
  xmlns="http://www.w3.org/2000/svg"
  height="250"
  width="250"
>
  <g transform="matrix(1.7768 0 0 1.7768 -12.06 -11.131)" style="fill:none;stroke:#000">
    <path d="m51.235 11.547c-.79639.277-1.5691.5899-2.3153.93842-.06287.10867-.16896.19022-.30879.24046-.0022.000748-.0043.0015-.0065.0022-.35165.12278-.87647.03939-1.3622-.19921l-.68382 1.3815c.76921.37038 1.5102.79101 2.2212 1.2568l1.2991-1.9623c.38438-.55342.7698-1.1061 1.1563-1.6579zm2.4836 1.8878c-.82106.18072-1.6226.39731-2.4017.6495-.07542.09948-.19014.16689-.33428.19913-.0022.00047-.0044.00094-.0067.0014-.36232.07762-.86891-.07071-1.3167-.36759l-.84577 1.2721c.71005.46719 1.3901.97943 2.0384 1.5316l1.5225-1.7849c.44717-.50123.89527-1.0016 1.3443-1.5012zm2.2375 2.1512c-.83636.08711-1.6573.21008-2.46.36861-.08656.08981-.20832.14318-.35512.15809-.0023.000202-.0045.000405-.0068.000608-.36882.03407-.85331-.17395-1.2611-.52291l-.99048 1.1569c.6473.55341 1.2628 1.1467 1.8449 1.7746l1.7193-1.5986c.50231-.44664 1.0054-.89241 1.5094-1.3373zm1.9805 2.3822c-.84227-.0038-1.6733.02821-2.4902.09576-.09629.07965-.22351.11909-.37134.11732-.0023-5.4e-5-.0045-.000108-.0068-.000162-.37115-.0078-.8297-.27035-1.1952-.66516l-1.118 1.0358c.58096.62904 1.1284 1.2927 1.6405 1.9858l1.8895-1.4032c.54979-.38964 1.1003-.77837 1.6514-1.1662zm1.7126 2.581c-.8388-.09206-1.6705-.14831-2.4922-.16905-.1046.06902-.23571.09462-.38291.07683-.0023-3e-4-.0045-6e-4-.0068-9e-4-.36931-.04803-.79807-.35994-1.1191-.79436l-1.2282.90891c.51104.69407.98677 1.4175 1.4255 2.1653l2.0332-1.1989c.58962-.33023 1.1798-.65952 1.7706-.98786zm1.4337 2.7474c-.82596-.17763-1.649-.31947-2.4661-.42583-.11151.05791-.2449.06976-.38985.03663-.0022-.000536-.0044-.0011-.0067-.0016-.36331-.08653-.75841-.44275-1.0328-.91049l-1.3212.77616c.43752.74851.83796 1.5212 1.1996 2.3129l2.1503-.98551c.62179-.26841 1.244-.53585 1.8667-.8023zm1.1439 2.8816c-.80374-.26052-1.6087-.48528-2.4119-.67458-.117.04632-.25111.04452-.39215-.0033-.0022-.000761-.0043-.0015-.0065-.0023-.35316-.12332-.71071-.51879-.9363-1.0136l-1.397.63756c.36041.79235.68198 1.6037.96298 2.4288l2.2409-.76316c.6463-.20419 1.2929-.40736 1.9399-.60952zm.84318 2.9835c-.77213-.34073-1.5496-.64572-2.3295-.91528-.12108.03425-.25432.0189-.38982-.04293-.0021-.000976-.0041-.002-.0062-.0029-.33887-.15838-.65495-.58806-.8296-1.1036l-1.4555.49313c.27971.8256.51882 1.6649.71559 2.5129l2.3049-.53182c.66316-.13756 1.3265-.27407 1.9901-.40952zm.5315 3.0531c-.73115-.41826-1.4718-.80082-2.219-1.148-.12375.0217-.25453-.0071-.38285-.08229-.002-.0012-.0039-.0024-.0059-.0035-.32047-.19171-.59112-.65058-.7127-1.1805l-1.4968.34286c.19542.84825.34848 1.705.45743 2.5652l2.3424-.29149c.67236-.06853 1.3448-.13596 2.0174-.2023zm.20887 3.0904c-.68079-.49312-1.3752-.95055-2.0803-1.3726-.12501.0087-.25174-.0335-.37124-.12137-.0018-.0014-.0036-.0027-.0055-.0041-.29797-.22332-.5192-.70632-.5856-1.2444l-1.5209.18675c.10755.8603.17096 1.7239.1885 2.5857l2.3534-.04216c.67391.0029 1.3478.007 2.0217.01215zm-.12469 3.0955c-.62105-.56529-1.2599-1.0949-1.9135-1.5892-.12486-.0048-.24596-.06027-.355-.16017-.0017-.0016-.0033-.0031-.005-.0047-.27138-.25321-.43916-.7553-.4483-1.2952l-1.5277.0248c.01608.86176-.01374 1.7216-.0912 2.5745l2.3378.21616c.6678.07676 1.3355.1547 2.003.23381zm-.4692 3.0682c-.55193-.63479-1.1258-1.2339-1.7186-1.7978-.1233-.01882-.23718-.08742-.33412-.19868-.0015-.0017-.0029-.0035-.0044-.0052-.24073-.28141-.35102-.79748-.3008-1.333l-1.5173-.14299c-.07897.85263-.20562 1.6982-.38167 2.5314l2.2956.48348c.65403.15302 1.3078.30725 1.9613.46269zm-.82464 3.0086c-.47343-.70161-.97292-1.3676-1.4955-1.9983-.12033-.03329-.2254-.11496-.30861-.23692-.0013-.0019-.0025-.0038-.0038-.0057-.20601-.30792-.25474-.83285-.14309-1.3577l-1.4897-.31662c-.17762.8329-.40468 1.6535-.68291 2.4566l2.2269.75979c.63261.23168 1.2648.46461 1.8967.69879zm-1.191 2.9168c0-1e-6 0-1e-6-1e-6-1e-6-.38555-.76575-.80131-1.4959-1.2443-2.1908-.11595-.04824-.21062-.14287-.27845-.27487-.001-.002-.002-.0041-.0031-.0061-.16722-.3328-.15034-.86138.02482-1.3693l-1.4448-.49608c-.27986.80257-.61091 1.5876-.99491 2.35l2.1317 1.0451c.60352.31274 1.2065.62677 1.809.94208 1.7e-5 9e-6 3.3e-5 1.7e-5 5e-5 2.6e-5zm-1.5874 2.7215c-.2784-.7959-.59266-1.5681-.94249-2.3136-.10878-.06268-.19051-.16863-.24101-.30837-.000751-.0022-.0015-.0043-.0023-.0065-.1234-.35143-.04093-.8764.19681-1.3626l-1.3827-.68139c-.36902.76986-.78835 1.5116-1.2529 2.2234l1.9646 1.2957c.5541.3834 1.1074.76785 1.6599 1.1533zm-1.8834 2.4869c-.18216-.82074-.40016-1.6219-.65372-2.4006-.09961-.07525-.16722-.18985-.19972-.33393-.000473-.0022-.000947-.0044-.0014-.0067-.07825-.36218.06918-.86903.36527-1.3174l-1.2736-.84353c-.46594.71087-.97698 1.3918-1.528 2.0411l1.7876 1.5193c.50202.44629 1.0032.8935 1.5036 1.3417zm-2.1472 2.2413c-.08858-.8362-.213-1.657-.37294-2.4594-.08996-.0864-.14354-.20807-.15871-.35485 0 0-.00062-.0068-.00062-.0068-.03472-.36876.17245-.85362.52069-1.262l-1.1586-.98844c-.55227.64827-1.1444 1.2648-1.7714 1.848l1.6016 1.7164c.44752.50152.89418 1.0039 1.34 1.507zm-2.3787 1.9847c.0023-.84228-.03115-1.6733-.10014-2.49-.07982-.09615-.11948-.2233-.11797-.37113l.00015-.0068c.0072-.37116.26889-.83017.66306-1.1963l-1.0378-1.1161c-.62802.58207-1.2907 1.1307-1.9829 1.644l1.4065 1.887c.3906.5491.7803 1.0989 1.1691 1.6494zm-2.578 1.7171c.09058-.83896.14537-1.6708.16467-2.4925-.0692-.10448-.09503-.23554-.07751-.38278l.000889-.0068c.04738-.3694.35854-.7987.79239-1.1205l-.91107-1.2266c-.69317.51225-1.4158.98926-2.1628 1.4293l1.2024 2.0311c.33126.58904.66159 1.1786.99097 1.7688zm-2.7449 1.4386c.17617-.82627.31657-1.6495.42149-2.4669-.0581-.1114-.07019-.24478-.03731-.38979.000532-.0022.0011-.0044.0016-.0067.08589-.36346.44142-.75919.90867-1.0344l-.77848-1.3198c-.74774.43883-1.5197.84064-2.3108 1.2037l.98929 2.1486c.2695.62132.53803 1.2431.80558 1.8653zm-2.8796 1.149c.2591-.80419.48245-1.6095.67033-2.413-.04652-.11692-.04496-.25103.0026-.39216.000757-.0022.0015-.0043.0023-.0065.1227-.35337.51754-.71162 1.0119-.93808l-.64002-1.3959c-.79171.3618-1.6025.6848-2.4271.96725l.7671 2.2396c.20533.64594.40964 1.2922.61293 1.9388zm-2.982.84843c.33937-.77273.643-1.5507.91119-2.3311-.03446-.12102-.01935-.25428.04225-.3899.000972-.0021.0019-.0042.0029-.0062.15779-.33915.58691-.65598 1.1021-.83154l-.49569-1.4547c-.8251.28116-1.664.52175-2.5117.72l.53588 2.304c.13873.66292.2764 1.3261.41302 1.9894zm-3.0522.53686c.41697-.73188.79823-1.4732 1.1441-2.221-.02192-.12371.0067-.25454.08162-.38299.0012-.002.0024-.0039.0035-.0059.19115-.32081.64953-.59226 1.1793-.71478l-.34549-1.4962c-.8479.19692-1.7044.35148-2.5644.46194l.29561 2.3419c.06971.67224.13832 1.3446.20584 2.017zm-3.0901.2143c.49192-.68166.94813-1.3769 1.3689-2.0827-.0089-.12499.03305-.2518.12072-.37146.0014-.0018.0027-.0037.0041-.0055.2228-.29836.70541-.52044 1.2434-.58779l-.18941-1.5205c-.86011.10906-1.7236.17399-2.5854.19304l.0463 2.3533c-.0017.67391-.0046 1.3478-.0086 2.0217zm-3.0957-.11925c.5642-.62204 1.0927-1.2618 1.5858-1.9163.0046-.12486.05983-.24606.15954-.35528.0016-.0017.0031-.0033.0047-.005.25274-.27183.75452-.44049 1.2944-.45058l-.02748-1.5277c-.86173.0176-1.7217-.01071-2.5746-.08668l-.21205 2.3382c-.07559.66793-.15235 1.3357-.23028 2.0034zm-3.069-.4638c.63382-.55305 1.232-1.1279 1.7947-1.7218.01861-.12333.087-.23733.1981-.33447.0017-.0015.0035-.0029.0052-.0044.28098-.24122.79686-.35242 1.3324-.30314l.14032-1.5176c-.85276-.07748-1.6985-.20263-2.5321-.37722l-.47944 2.2965c-.15187.6543-.30495 1.3083-.45924 1.9621zm-3.0101-.81935c.70078-.47466 1.3659-.97532 1.9957-1.499.03308-.12039.11456-.2256.23638-.30902.0019-.0013.0038-.0025.0057-.0038.30756-.20655.8324-.2562 1.3574-.14548l.314-1.4903c-.83321-.17616-1.6542-.40177-2.4578-.67859l-.75587 2.2283c-.23057.63302-.46238 1.2657-.69545 1.8979zm-2.9189-1.1859c1e-6 0 2e-6-1e-6 3e-6-1e-6.76507-.3869 1.4945-.80394 2.1886-1.2482.04804-.11604.1425-.21088.27438-.27894.002-.001.0041-.002.0061-.0031.3325-.16781.86111-.15185 1.3693.02241l.49354-1.4457c-.80304-.27841-1.5887-.60809-2.3517-.99075l-1.0413 2.1335c-.31167.60405-.62463 1.2076-.93888 1.8106-1.7e-5 3.3e-5-3.4e-5 6.6e-5-5.1e-5 9.9e-5zm-2.7242-1.5826c.79541-.2798 1.567-.59542 2.3119-.94655.06249-.10889.16829-.19081.30795-.24155.0022-.000755.0043-.0015.0065-.0023.35122-.12402.87633-.04247 1.3629.19442l.67896-1.3839c-.77051-.36767-1.513-.78569-2.2256-1.249l-1.2922 1.9669c-.38242.55477-.7659 1.1088-1.1504 1.662zm-2.4902-1.8791c.82042-.1836 1.6212-.40302 2.3994-.65794.07507-.09974.18955-.16756.33358-.20031.0022-.000478.0044-.000956.0067-.0014.36204-.07889.86915.06766 1.318.36296l.84129-1.2751c-.71169-.46469-1.3935-.97453-2.0438-1.5244l-1.5162 1.7903c-.4454.5028-.89174 1.0048-1.339 1.5059zm-2.2451-2.1433c.83605-.09005 1.6566-.21591 2.4587-.37726.08624-.09011.20782-.14391.35457-.15933.0023-.00021.0045-.000421.0068-.000632.3687-.03537.85392.17095 1.2629.51847l.9864-1.1604c-.64924-.55113-1.2669-1.1422-1.8511-1.7681l-1.7136 1.6046c-.50073.4484-1.0023.89594-1.5046 1.3426zm-1.9889-2.3752c.84228.00085 1.6732-.03409 2.4898-.10452.09601-.07999.22309-.11987.37092-.11862.0023 4.6e-5.0045 9.2e-5.0068.000138.37118.0065.83065.26743 1.1975.66096l1.1143-1.0398c-.58317-.62699-1.1329-1.2887-1.6475-1.9801l-1.8845 1.4099c-.54842.39157-1.0975.78224-1.6473 1.172zm-1.7217-2.5749c.83912.08911 1.671.14244 2.4928.16029.10436-.06939.23537-.09544.38264-.07818.0023.000292.0045.000585.0068.000877.36948.04673.79933.35713 1.1219.79042l1.225-.91323c-.51347-.69227-.99175-1.4141-1.4331-2.1603l-2.029 1.206c-.58845.3323-1.1775.66366-1.7671.99408zm-1.4434-2.7424c.82658.17472 1.6501.31367 2.4676.41716.1113-.0583.24466-.07062.38972-.038.0022.000528.0045.0011.0067.0016.36361.08526.75996.44008 1.036.90685l1.3185-.7808c-.44015-.74696-.84331-1.5182-1.2077-2.3087l-2.1468.99307c-.62084.2706-1.2421.54022-1.8639.80886zm-1.1541-2.8776c.80465.25769 1.6104.47962 2.4142.66609.11683-.04673.25095-.04541.39216.0019.0022.000754.0043.0015.0065.0023.35359.12208.71253.51628.93986 1.0103l1.3947-.64247c-.36319-.79108-.68762-1.6013-.97152-2.4254l-2.2382.77104c-.64558.20646-1.2915.41191-1.9378.61634zm-.85367-2.9805c.77333.33801 1.5519.64027 2.3327.90709.12096-.03467.25425-.01979.38997.04156.0021.000969.0042.0019.0062.0029.33943.15719.65702.58575.83348 1.1006l1.4538-.49825c-.28258-.8246-.52464-1.6631-.72439-2.5104l-2.3031.53993c-.66267.13989-1.3256.27873-1.9887.41651zm-.54223-3.0512c.73262.41569 1.4746.79563 2.223 1.1401.12367-.02213.25455.0062.38314.08095.002.0012.0039.0023.0059.0035.32114.19059.5934.64849.71685 1.178l1.4956-.34812c-.19841-.84755-.35447-1.7038-.46644-2.5636l-2.3414.29973c-.67212.07089-1.3443.14069-2.0166.20939zm-.21974-3.0897c.68252.49072 1.3785.94571 2.0851 1.3653.12498-.0091.25186.03261.37167.12007.0018.0014.0037.0027.0055.0041.29875.22227.52168.70449.58997 1.2423l1.5202-.1921c-.11057-.85992-.17702-1.7233-.19759-2.5851l-2.3532.05044c-.67391-.000544-1.3478-.0022-2.0217-.005zm.11381-3.0959c.62303.5631 1.2637 1.0905 1.9191 1.5825.12487.0044.24617.0594.35556.15892.0017.0016.0033.0031.005.0047.27227.25226.44182.75375.45285 1.2936l1.5276-.03017c-.01911-.8617.0077-1.7217.08215-2.5748l-2.3385-.20799c-.66806-.074414-1.336-.15-2.0038-.22676zm.4584-3.0698c.55416.63284 1.1301 1.23 1.7249 1.7917.12336.01839.23748.08659.33482.19751.0015.0017.003.0034.0044.0052.24172.28056.35382.79624.30548 1.3319l1.5178.13765c.07598-.8529.19964-1.6989.37277-2.5328l-2.2973-.47543c-.65457-.15072-1.3089-.30265-1.9629-.45579zm.81405-3.0115c.4759.69994.97772 1.3642 1.5026 1.993.12044.03287.2258.11416.30944.23583.0013.0019.0025.0038.0038.0057.20709.3072.25767.83195.14786 1.3572l1.4908.31138c.17469-.83352.39886-1.6549.67426-2.459l-2.2296-.75199c-.63342-.22945-1.2665-.46016-1.8991-.69212zm1.1808-2.921c1e-6 1e-6 1e-6 2e-6 1e-6 3e-6.38824.76439.80656 1.4931 1.252 2.1864.11612.04783.21113.14213.27942.27389.001.002.0021.0041.0031.0061.16839.33221.15337.86084-.02 1.3694l1.4466.491c.27703-.80355.60533-1.5897.98664-2.3535l-2.1354-1.0376c-.60458-.3106-1.2087-.62248-1.8122-.93566-5e-5-2.5e-5-9.9e-5-5e-5-.000149-7.5e-5zm1.5778-2.727c.28119.79492.59817 1.566.95062 2.3103.109.0623.19111.16796.24209.30752.000759.0022.0015.0043.0023.0065.12464.351.04401.87625-.19202 1.3633l1.3851.67653c.36631-.77116.78303-1.5143 1.245-2.2278l-1.9691-1.2888c-.55544-.38145-1.1101-.76395-1.664-1.1475zm1.8747-2.4935c.18504.8201.40587 1.6205.66216 2.3982.09987.0749.16789.18926.2009.33322.000481.0022.000963.0044.0014.0067.07953.3619-.06613.86927-.36064 1.3187l1.2766.83905c.46344-.71251.97208-1.3952 1.5208-2.0465l-1.7929-1.5131c-.50358-.44452-1.0064-.88997-1.5083-1.3364zm2.1393-2.2488c.09152.83588.21882 1.6562.38158 2.458.09026.08609.14428.20756.15996.35429.000215.0023.000429.0045.000644.0068.03602.36864-.16944.85422-.51625 1.2638l1.1621.98436c.54999-.65021 1.14-1.2689 1.7648-1.8542l-1.6076-1.7108c-.44928-.49994-.8977-1.0007-1.3453-1.5023zm2.3717-1.9931c.00063.84228.03703 1.6731.1089 2.4896.08016.09587.12027.22288.11928.37071-4.2e-5.0023-8.4e-5.0045-.000126.0068-.0059.37119-.26597.83111-.65885 1.1987l1.0417 1.1125c.62597-.58427 1.2867-1.1352 1.9772-1.651l-1.4132-1.8821c-.39253-.54773-.78416-1.0962-1.1749-1.6453zm2.5719-1.7262c-.08763.83928-.1395 1.6713-.1559 2.4931.06957.10424.09586.2352.07885.3825-.000288.0023-.000576.0045-.000864.0068-.04608.36956-.35573.79996-.78844 1.1233l.91538 1.2234c.69137-.51469 1.4123-.99423 2.1577-1.4369l-1.2096-2.0268c-.33333-.58787-.66573-1.1763-.99719-1.7653zm2.7398-1.4482c-.17327.82688-.31077 1.6506-.41282 2.4683.0585.1112.07105.24453.03869.38965-.000525.0022-.001.0045-.0016.0067-.08461.36376-.43874.76073-.90503 1.0376l.78312 1.3171c.74619-.44146 1.5168-.84598 2.3066-1.2118l-.99684-2.1451c-.27169-.62036-.5424-1.2412-.81214-1.8625zm2.8755-1.1591c-.25627.8051-.47678 1.6112-.66184 2.4154.04694.11675.04584.25087-.0012.39216-.00075.0022-.0015.0043-.0023.0065-.12146.3538-.51503.71344-1.0086.94163l.64492 1.3936c.79044-.36458 1.6-.69043 2.4237-.97578l-.77495-2.2368c-.2076-.64522-.41418-1.2908-.61974-1.9367zm2.979-.85891c-.33665.77392-.63754 1.553-.90298 2.3343.03489.1209.02024.25421-.04088.39004-.000965.0021-.0019.0042-.0029.0062-.15659.3397-.5846.65804-1.0992.83541l.5008 1.4529c.82411-.28406 1.6622-.5276 2.5091-.72883l-.54397-2.3021c-.14106-.66243-.28106-1.3251-.42001-1.9879zm3.0503-.54759c-.4144.73335-.79304 1.476-1.1362 2.225.02235.12363-.0058.25456-.08027.38328-.0012.002-.0023.0039-.0035.0059-.19002.32148-.64745.59454-1.1767.71892l.35075 1.495c.8472-.1999 1.7032-.35747 2.5628-.47095l-.30386-2.3409c-.072073-.67199-.14305-1.3441-.21294-2.0163zm3.0893-.22517c-.48952.68338-.94328 1.3802-1.3616 2.0875.0093.12496-.03217.25191-.11941.37188-.0014.00183-.0027.00366-.0041.00549-.22175.29914-.70357.52291-1.2413.59216l.19477 1.5199c.85972-.11208 1.723-.18005 2.5847-.20213l-.05458-2.3531c-.00064-.67391-.000147-1.3478.0015-2.0217zm3.0961.10836c-.56201.62402-1.0883 1.2656-1.5791 1.9219-.0042.12488-.05897.24627-.15829.35584-.0015.00167-.0031.00334-.0046.005-.25178.27272-.75297.44314-1.2928.45513l.03286 1.5276c.86166-.02063 1.7217.0047 2.5749.07762l.20383-2.3389c.07324-.66819.14765-1.3363.22324-2.0042zm3.0706.45301c-.63187.55527-1.228 1.1323-1.7887 1.7281-.01817.12339-.08617.23764-.19692.33517-.0017.00148-.0034.00296-.0052.00444-.28013.24221-.79562.35522-1.3314.30782l-.13498 1.5181c.85303.07448 1.6992.19666 2.5334.36831l.4714-2.2981c.14957-.65483.30034-1.3094.45234-1.9637zm3.0129.80876c-.6991.47713-1.3625.98012-1.9904 1.5061-.03266.1205-.11377.226-.23529.30985-.0019.0013-.0038.0025-.0057.0038-.30683.20763-.8315.25913-1.3569.15025l-.30876 1.4914c.83382.17322 1.6556.39595 2.4602.66994l.74803-2.2309c.22838-.63382.45798-1.2673.68882-1.9003zm2.923 1.1756c-.7637.38959-1.4917.80919-2.1842 1.2559-.04763.1162-.14176.21138-.2734.2799-.002.001-.0041.0021-.0061.0031-.33191.16898-.86057.15488-1.3694-.0176l-.48846 1.4474c.80404.27562 1.5908.60253 2.3552.9825l1.0338-2.1372c.30956-.60517.62041-1.2099.93255-1.814z" style="fill:none;paint-order:normal;stroke-linecap:round;stroke-linejoin:round;stroke-width:2.1167;stroke:#000"/>
    <path d="m41.853 23.949a12.956 12.362 0 015.8742 16.543 12.956 12.362 0 01-17.328 5.6338 12.956 12.362 0 01-5.9351-16.523 12.956 12.362 0 0117.307-5.6919" style="fill:none;stroke-linecap:round;stroke-linejoin:round;stroke-width:2.6458;stroke:#000"/>
    <path d="m37.682 31.844a3.5524 3.5524 0 011.6106 4.7539 3.5524 3.5524 0 01-4.7511 1.619 3.5524 3.5524 0 01-1.6273-4.7483 3.5524 3.5524 0 014.7454-1.6357" style="fill:none;stroke-linecap:round;stroke-linejoin:round;stroke-width:2.6458;stroke:#000"/>
    <path d="m32.554 35.028 3.5524-12.362 3.5524 12.362-3.5524 12.362-3.5524-12.362" style="fill:none;stroke-linejoin:round;stroke-width:2.6458;stroke:#000"/>
    <path d="m36.106 22.667-2.7482 9.5627-10.208 2.7988 10.208 2.7988 2.7482 9.5627 2.7482-9.5627 10.208-2.7988-10.208-2.7993z" style="fill:none;stroke-linejoin:round;stroke-width:2.6458;stroke:#000"/>
    <path d="m44.732 17.653a19.387 19.387 0 018.7903 25.945 19.387 19.387 0 01-25.93 8.8359 19.387 19.387 0 01-8.8814-25.914 19.387 19.387 0 0125.899-8.927" style="fill:none;stroke-linecap:round;stroke-linejoin:round;stroke-width:1.3229;stroke:#000"/>
  </g>
  <g transform="matrix(2.0921 0 0 2.0921 -196.29 83.363)" style="fill:none;stroke:#000">
    <path d="m128.45 15.215a21.926 22.585 0 019.9412 30.225 21.926 22.585 0 01-29.325 10.293 21.926 22.585 0 01-10.044-30.189 21.926 22.585 0 0129.29-10.4" style="fill:none;stroke-linecap:round;stroke-linejoin:round;stroke-width:5;stroke:#000"/>
    <path d="m126.5 19.741-.14874.3005m5.7167 4.2829-.26112.20518m3.5454 6.2565-.32125.09217m.93812 7.1154-.32914-.03856m-2.0945 6.8393-.27865-.18124m-4.8716 5.2233-.17908-.28074m-6.5706 2.946-.0617-.32801m-7.1556.23078.0734-.32307m-6.5562-2.8574.21056-.2558m-4.7045-5.3925.29719-.15193m-2.3202-6.8172.33163-.03018m.5039-7.1287.31387.10945m3.5812-6.1883.23193.2367m5.8458-4.1599.12372.31047m6.9965-1.6677-.002.33208m7.0349 1.2663-.14663.30154" style="fill:none;stroke-linecap:round;stroke-linejoin:round;stroke-width:1.0583;stroke:#000"/>
    <path d="m120.42 19.488c-1.6854 6.29-2.3882 10.779-5.056 18.87v3.4918h3.4918l1.2842-2.2236c1.9682-4.3006 5.2888-7.6295 7.9344-11.443-3.1668 3.1668-5.2071 5.6473-9.2816 9.3679-.40456-6.1156 1.1267-12.038 1.6273-18.063z" style="fill:none;stroke-linecap:round;stroke-linejoin:round;stroke-width:1.0583;stroke:#000"/>
    <path d="m118.79 37.551-3.4287 4.299" style="fill:none;stroke-linecap:round;stroke-linejoin:round;stroke-width:1.0583;stroke:#000"/>
    <path d="m125.17 22.432a14.532 14.532 0 016.589 19.448 14.532 14.532 0 01-19.436 6.6232 14.532 14.532 0 01-6.6573-19.425 14.532 14.532 0 0119.413-6.6915" style="fill:none;stroke-linecap:round;stroke-linejoin:round;stroke-width:1.0583;stroke:#000"/>
    <path d="m123.49 25.819a10.753 10.753 0 014.8756 14.391 10.753 10.753 0 01-14.382 4.9009 10.753 10.753 0 01-4.9262-14.374 10.753 10.753 0 0114.365-4.9515" style="fill:none;stroke-linecap:round;stroke-linejoin:round;stroke-width:1.0583;stroke:#000"/>
  </g>
  <g transform="matrix(1 0 0 -1 106.8 210)">
    <g transform="matrix(1.7768 0 0 1.7768 -12.06 -11.131)" style="fill:none;stroke:#000">
      <path d="m51.235 11.547c-.79639.277-1.5691.5899-2.3153.93842-.06287.10867-.16896.19022-.30879.24046-.0022.000748-.0043.0015-.0065.0022-.35165.12278-.87647.03939-1.3622-.19921l-.68382 1.3815c.76921.37038 1.5102.79101 2.2212 1.2568l1.2991-1.9623c.38438-.55342.7698-1.1061 1.1563-1.6579zm2.4836 1.8878c-.82106.18072-1.6226.39731-2.4017.6495-.07542.09948-.19014.16689-.33428.19913-.0022.00047-.0044.00094-.0067.0014-.36232.07762-.86891-.07071-1.3167-.36759l-.84577 1.2721c.71005.46719 1.3901.97943 2.0384 1.5316l1.5225-1.7849c.44717-.50123.89527-1.0016 1.3443-1.5012zm2.2375 2.1512c-.83636.08711-1.6573.21008-2.46.36861-.08656.08981-.20832.14318-.35512.15809-.0023.000202-.0045.000405-.0068.000608-.36882.03407-.85331-.17395-1.2611-.52291l-.99048 1.1569c.6473.55341 1.2628 1.1467 1.8449 1.7746l1.7193-1.5986c.50231-.44664 1.0054-.89241 1.5094-1.3373zm1.9805 2.3822c-.84227-.0038-1.6733.02821-2.4902.09576-.09629.07965-.22351.11909-.37134.11732-.0023-5.4e-5-.0045-.000108-.0068-.000162-.37115-.0078-.8297-.27035-1.1952-.66516l-1.118 1.0358c.58096.62904 1.1284 1.2927 1.6405 1.9858l1.8895-1.4032c.54979-.38964 1.1003-.77837 1.6514-1.1662zm1.7126 2.581c-.8388-.09206-1.6705-.14831-2.4922-.16905-.1046.06902-.23571.09462-.38291.07683-.0023-3e-4-.0045-6e-4-.0068-9e-4-.36931-.04803-.79807-.35994-1.1191-.79436l-1.2282.90891c.51104.69407.98677 1.4175 1.4255 2.1653l2.0332-1.1989c.58962-.33023 1.1798-.65952 1.7706-.98786zm1.4337 2.7474c-.82596-.17763-1.649-.31947-2.4661-.42583-.11151.05791-.2449.06976-.38985.03663-.0022-.000536-.0044-.0011-.0067-.0016-.36331-.08653-.75841-.44275-1.0328-.91049l-1.3212.77616c.43752.74851.83796 1.5212 1.1996 2.3129l2.1503-.98551c.62179-.26841 1.244-.53585 1.8667-.8023zm1.1439 2.8816c-.80374-.26052-1.6087-.48528-2.4119-.67458-.117.04632-.25111.04452-.39215-.0033-.0022-.000761-.0043-.0015-.0065-.0023-.35316-.12332-.71071-.51879-.9363-1.0136l-1.397.63756c.36041.79235.68198 1.6037.96298 2.4288l2.2409-.76316c.6463-.20419 1.2929-.40736 1.9399-.60952zm.84318 2.9835c-.77213-.34073-1.5496-.64572-2.3295-.91528-.12108.03425-.25432.0189-.38982-.04293-.0021-.000976-.0041-.002-.0062-.0029-.33887-.15838-.65495-.58806-.8296-1.1036l-1.4555.49313c.27971.8256.51882 1.6649.71559 2.5129l2.3049-.53182c.66316-.13756 1.3265-.27407 1.9901-.40952zm.5315 3.0531c-.73115-.41826-1.4718-.80082-2.219-1.148-.12375.0217-.25453-.0071-.38285-.08229-.002-.0012-.0039-.0024-.0059-.0035-.32047-.19171-.59112-.65058-.7127-1.1805l-1.4968.34286c.19542.84825.34848 1.705.45743 2.5652l2.3424-.29149c.67236-.06853 1.3448-.13596 2.0174-.2023zm.20887 3.0904c-.68079-.49312-1.3752-.95055-2.0803-1.3726-.12501.0087-.25174-.0335-.37124-.12137-.0018-.0014-.0036-.0027-.0055-.0041-.29797-.22332-.5192-.70632-.5856-1.2444l-1.5209.18675c.10755.8603.17096 1.7239.1885 2.5857l2.3534-.04216c.67391.0029 1.3478.007 2.0217.01215zm-.12469 3.0955c-.62105-.56529-1.2599-1.0949-1.9135-1.5892-.12486-.0048-.24596-.06027-.355-.16017-.0017-.0016-.0033-.0031-.005-.0047-.27138-.25321-.43916-.7553-.4483-1.2952l-1.5277.0248c.01608.86176-.01374 1.7216-.0912 2.5745l2.3378.21616c.6678.07676 1.3355.1547 2.003.23381zm-.4692 3.0682c-.55193-.63479-1.1258-1.2339-1.7186-1.7978-.1233-.01882-.23718-.08742-.33412-.19868-.0015-.0017-.0029-.0035-.0044-.0052-.24073-.28141-.35102-.79748-.3008-1.333l-1.5173-.14299c-.07897.85263-.20562 1.6982-.38167 2.5314l2.2956.48348c.65403.15302 1.3078.30725 1.9613.46269zm-.82464 3.0086c-.47343-.70161-.97292-1.3676-1.4955-1.9983-.12033-.03329-.2254-.11496-.30861-.23692-.0013-.0019-.0025-.0038-.0038-.0057-.20601-.30792-.25474-.83285-.14309-1.3577l-1.4897-.31662c-.17762.8329-.40468 1.6535-.68291 2.4566l2.2269.75979c.63261.23168 1.2648.46461 1.8967.69879zm-1.191 2.9168c0-1e-6 0-1e-6-1e-6-1e-6-.38555-.76575-.80131-1.4959-1.2443-2.1908-.11595-.04824-.21062-.14287-.27845-.27487-.001-.002-.002-.0041-.0031-.0061-.16722-.3328-.15034-.86138.02482-1.3693l-1.4448-.49608c-.27986.80257-.61091 1.5876-.99491 2.35l2.1317 1.0451c.60352.31274 1.2065.62677 1.809.94208 1.7e-5 9e-6 3.3e-5 1.7e-5 5e-5 2.6e-5zm-1.5874 2.7215c-.2784-.7959-.59266-1.5681-.94249-2.3136-.10878-.06268-.19051-.16863-.24101-.30837-.000751-.0022-.0015-.0043-.0023-.0065-.1234-.35143-.04093-.8764.19681-1.3626l-1.3827-.68139c-.36902.76986-.78835 1.5116-1.2529 2.2234l1.9646 1.2957c.5541.3834 1.1074.76785 1.6599 1.1533zm-1.8834 2.4869c-.18216-.82074-.40016-1.6219-.65372-2.4006-.09961-.07525-.16722-.18985-.19972-.33393-.000473-.0022-.000947-.0044-.0014-.0067-.07825-.36218.06918-.86903.36527-1.3174l-1.2736-.84353c-.46594.71087-.97698 1.3918-1.528 2.0411l1.7876 1.5193c.50202.44629 1.0032.8935 1.5036 1.3417zm-2.1472 2.2413c-.08858-.8362-.213-1.657-.37294-2.4594-.08996-.0864-.14354-.20807-.15871-.35485 0 0-.00062-.0068-.00062-.0068-.03472-.36876.17245-.85362.52069-1.262l-1.1586-.98844c-.55227.64827-1.1444 1.2648-1.7714 1.848l1.6016 1.7164c.44752.50152.89418 1.0039 1.34 1.507zm-2.3787 1.9847c.0023-.84228-.03115-1.6733-.10014-2.49-.07982-.09615-.11948-.2233-.11797-.37113l.00015-.0068c.0072-.37116.26889-.83017.66306-1.1963l-1.0378-1.1161c-.62802.58207-1.2907 1.1307-1.9829 1.644l1.4065 1.887c.3906.5491.7803 1.0989 1.1691 1.6494zm-2.578 1.7171c.09058-.83896.14537-1.6708.16467-2.4925-.0692-.10448-.09503-.23554-.07751-.38278l.000889-.0068c.04738-.3694.35854-.7987.79239-1.1205l-.91107-1.2266c-.69317.51225-1.4158.98926-2.1628 1.4293l1.2024 2.0311c.33126.58904.66159 1.1786.99097 1.7688zm-2.7449 1.4386c.17617-.82627.31657-1.6495.42149-2.4669-.0581-.1114-.07019-.24478-.03731-.38979.000532-.0022.0011-.0044.0016-.0067.08589-.36346.44142-.75919.90867-1.0344l-.77848-1.3198c-.74774.43883-1.5197.84064-2.3108 1.2037l.98929 2.1486c.2695.62132.53803 1.2431.80558 1.8653zm-2.8796 1.149c.2591-.80419.48245-1.6095.67033-2.413-.04652-.11692-.04496-.25103.0026-.39216.000757-.0022.0015-.0043.0023-.0065.1227-.35337.51754-.71162 1.0119-.93808l-.64002-1.3959c-.79171.3618-1.6025.6848-2.4271.96725l.7671 2.2396c.20533.64594.40964 1.2922.61293 1.9388zm-2.982.84843c.33937-.77273.643-1.5507.91119-2.3311-.03446-.12102-.01935-.25428.04225-.3899.000972-.0021.0019-.0042.0029-.0062.15779-.33915.58691-.65598 1.1021-.83154l-.49569-1.4547c-.8251.28116-1.664.52175-2.5117.72l.53588 2.304c.13873.66292.2764 1.3261.41302 1.9894zm-3.0522.53686c.41697-.73188.79823-1.4732 1.1441-2.221-.02192-.12371.0067-.25454.08162-.38299.0012-.002.0024-.0039.0035-.0059.19115-.32081.64953-.59226 1.1793-.71478l-.34549-1.4962c-.8479.19692-1.7044.35148-2.5644.46194l.29561 2.3419c.06971.67224.13832 1.3446.20584 2.017zm-3.0901.2143c.49192-.68166.94813-1.3769 1.3689-2.0827-.0089-.12499.03305-.2518.12072-.37146.0014-.0018.0027-.0037.0041-.0055.2228-.29836.70541-.52044 1.2434-.58779l-.18941-1.5205c-.86011.10906-1.7236.17399-2.5854.19304l.0463 2.3533c-.0017.67391-.0046 1.3478-.0086 2.0217zm-3.0957-.11925c.5642-.62204 1.0927-1.2618 1.5858-1.9163.0046-.12486.05983-.24606.15954-.35528.0016-.0017.0031-.0033.0047-.005.25274-.27183.75452-.44049 1.2944-.45058l-.02748-1.5277c-.86173.0176-1.7217-.01071-2.5746-.08668l-.21205 2.3382c-.07559.66793-.15235 1.3357-.23028 2.0034zm-3.069-.4638c.63382-.55305 1.232-1.1279 1.7947-1.7218.01861-.12333.087-.23733.1981-.33447.0017-.0015.0035-.0029.0052-.0044.28098-.24122.79686-.35242 1.3324-.30314l.14032-1.5176c-.85276-.07748-1.6985-.20263-2.5321-.37722l-.47944 2.2965c-.15187.6543-.30495 1.3083-.45924 1.9621zm-3.0101-.81935c.70078-.47466 1.3659-.97532 1.9957-1.499.03308-.12039.11456-.2256.23638-.30902.0019-.0013.0038-.0025.0057-.0038.30756-.20655.8324-.2562 1.3574-.14548l.314-1.4903c-.83321-.17616-1.6542-.40177-2.4578-.67859l-.75587 2.2283c-.23057.63302-.46238 1.2657-.69545 1.8979zm-2.9189-1.1859c1e-6 0 2e-6-1e-6 3e-6-1e-6.76507-.3869 1.4945-.80394 2.1886-1.2482.04804-.11604.1425-.21088.27438-.27894.002-.001.0041-.002.0061-.0031.3325-.16781.86111-.15185 1.3693.02241l.49354-1.4457c-.80304-.27841-1.5887-.60809-2.3517-.99075l-1.0413 2.1335c-.31167.60405-.62463 1.2076-.93888 1.8106-1.7e-5 3.3e-5-3.4e-5 6.6e-5-5.1e-5 9.9e-5zm-2.7242-1.5826c.79541-.2798 1.567-.59542 2.3119-.94655.06249-.10889.16829-.19081.30795-.24155.0022-.000755.0043-.0015.0065-.0023.35122-.12402.87633-.04247 1.3629.19442l.67896-1.3839c-.77051-.36767-1.513-.78569-2.2256-1.249l-1.2922 1.9669c-.38242.55477-.7659 1.1088-1.1504 1.662zm-2.4902-1.8791c.82042-.1836 1.6212-.40302 2.3994-.65794.07507-.09974.18955-.16756.33358-.20031.0022-.000478.0044-.000956.0067-.0014.36204-.07889.86915.06766 1.318.36296l.84129-1.2751c-.71169-.46469-1.3935-.97453-2.0438-1.5244l-1.5162 1.7903c-.4454.5028-.89174 1.0048-1.339 1.5059zm-2.2451-2.1433c.83605-.09005 1.6566-.21591 2.4587-.37726.08624-.09011.20782-.14391.35457-.15933.0023-.00021.0045-.000421.0068-.000632.3687-.03537.85392.17095 1.2629.51847l.9864-1.1604c-.64924-.55113-1.2669-1.1422-1.8511-1.7681l-1.7136 1.6046c-.50073.4484-1.0023.89594-1.5046 1.3426zm-1.9889-2.3752c.84228.00085 1.6732-.03409 2.4898-.10452.09601-.07999.22309-.11987.37092-.11862.0023 4.6e-5.0045 9.2e-5.0068.000138.37118.0065.83065.26743 1.1975.66096l1.1143-1.0398c-.58317-.62699-1.1329-1.2887-1.6475-1.9801l-1.8845 1.4099c-.54842.39157-1.0975.78224-1.6473 1.172zm-1.7217-2.5749c.83912.08911 1.671.14244 2.4928.16029.10436-.06939.23537-.09544.38264-.07818.0023.000292.0045.000585.0068.000877.36948.04673.79933.35713 1.1219.79042l1.225-.91323c-.51347-.69227-.99175-1.4141-1.4331-2.1603l-2.029 1.206c-.58845.3323-1.1775.66366-1.7671.99408zm-1.4434-2.7424c.82658.17472 1.6501.31367 2.4676.41716.1113-.0583.24466-.07062.38972-.038.0022.000528.0045.0011.0067.0016.36361.08526.75996.44008 1.036.90685l1.3185-.7808c-.44015-.74696-.84331-1.5182-1.2077-2.3087l-2.1468.99307c-.62084.2706-1.2421.54022-1.8639.80886zm-1.1541-2.8776c.80465.25769 1.6104.47962 2.4142.66609.11683-.04673.25095-.04541.39216.0019.0022.000754.0043.0015.0065.0023.35359.12208.71253.51628.93986 1.0103l1.3947-.64247c-.36319-.79108-.68762-1.6013-.97152-2.4254l-2.2382.77104c-.64558.20646-1.2915.41191-1.9378.61634zm-.85367-2.9805c.77333.33801 1.5519.64027 2.3327.90709.12096-.03467.25425-.01979.38997.04156.0021.000969.0042.0019.0062.0029.33943.15719.65702.58575.83348 1.1006l1.4538-.49825c-.28258-.8246-.52464-1.6631-.72439-2.5104l-2.3031.53993c-.66267.13989-1.3256.27873-1.9887.41651zm-.54223-3.0512c.73262.41569 1.4746.79563 2.223 1.1401.12367-.02213.25455.0062.38314.08095.002.0012.0039.0023.0059.0035.32114.19059.5934.64849.71685 1.178l1.4956-.34812c-.19841-.84755-.35447-1.7038-.46644-2.5636l-2.3414.29973c-.67212.07089-1.3443.14069-2.0166.20939zm-.21974-3.0897c.68252.49072 1.3785.94571 2.0851 1.3653.12498-.0091.25186.03261.37167.12007.0018.0014.0037.0027.0055.0041.29875.22227.52168.70449.58997 1.2423l1.5202-.1921c-.11057-.85992-.17702-1.7233-.19759-2.5851l-2.3532.05044c-.67391-.000544-1.3478-.0022-2.0217-.005zm.11381-3.0959c.62303.5631 1.2637 1.0905 1.9191 1.5825.12487.0044.24617.0594.35556.15892.0017.0016.0033.0031.005.0047.27227.25226.44182.75375.45285 1.2936l1.5276-.03017c-.01911-.8617.0077-1.7217.08215-2.5748l-2.3385-.20799c-.66806-.074414-1.336-.15-2.0038-.22676zm.4584-3.0698c.55416.63284 1.1301 1.23 1.7249 1.7917.12336.01839.23748.08659.33482.19751.0015.0017.003.0034.0044.0052.24172.28056.35382.79624.30548 1.3319l1.5178.13765c.07598-.8529.19964-1.6989.37277-2.5328l-2.2973-.47543c-.65457-.15072-1.3089-.30265-1.9629-.45579zm.81405-3.0115c.4759.69994.97772 1.3642 1.5026 1.993.12044.03287.2258.11416.30944.23583.0013.0019.0025.0038.0038.0057.20709.3072.25767.83195.14786 1.3572l1.4908.31138c.17469-.83352.39886-1.6549.67426-2.459l-2.2296-.75199c-.63342-.22945-1.2665-.46016-1.8991-.69212zm1.1808-2.921c1e-6 1e-6 1e-6 2e-6 1e-6 3e-6.38824.76439.80656 1.4931 1.252 2.1864.11612.04783.21113.14213.27942.27389.001.002.0021.0041.0031.0061.16839.33221.15337.86084-.02 1.3694l1.4466.491c.27703-.80355.60533-1.5897.98664-2.3535l-2.1354-1.0376c-.60458-.3106-1.2087-.62248-1.8122-.93566-5e-5-2.5e-5-9.9e-5-5e-5-.000149-7.5e-5zm1.5778-2.727c.28119.79492.59817 1.566.95062 2.3103.109.0623.19111.16796.24209.30752.000759.0022.0015.0043.0023.0065.12464.351.04401.87625-.19202 1.3633l1.3851.67653c.36631-.77116.78303-1.5143 1.245-2.2278l-1.9691-1.2888c-.55544-.38145-1.1101-.76395-1.664-1.1475zm1.8747-2.4935c.18504.8201.40587 1.6205.66216 2.3982.09987.0749.16789.18926.2009.33322.000481.0022.000963.0044.0014.0067.07953.3619-.06613.86927-.36064 1.3187l1.2766.83905c.46344-.71251.97208-1.3952 1.5208-2.0465l-1.7929-1.5131c-.50358-.44452-1.0064-.88997-1.5083-1.3364zm2.1393-2.2488c.09152.83588.21882 1.6562.38158 2.458.09026.08609.14428.20756.15996.35429.000215.0023.000429.0045.000644.0068.03602.36864-.16944.85422-.51625 1.2638l1.1621.98436c.54999-.65021 1.14-1.2689 1.7648-1.8542l-1.6076-1.7108c-.44928-.49994-.8977-1.0007-1.3453-1.5023zm2.3717-1.9931c.00063.84228.03703 1.6731.1089 2.4896.08016.09587.12027.22288.11928.37071-4.2e-5.0023-8.4e-5.0045-.000126.0068-.0059.37119-.26597.83111-.65885 1.1987l1.0417 1.1125c.62597-.58427 1.2867-1.1352 1.9772-1.651l-1.4132-1.8821c-.39253-.54773-.78416-1.0962-1.1749-1.6453zm2.5719-1.7262c-.08763.83928-.1395 1.6713-.1559 2.4931.06957.10424.09586.2352.07885.3825-.000288.0023-.000576.0045-.000864.0068-.04608.36956-.35573.79996-.78844 1.1233l.91538 1.2234c.69137-.51469 1.4123-.99423 2.1577-1.4369l-1.2096-2.0268c-.33333-.58787-.66573-1.1763-.99719-1.7653zm2.7398-1.4482c-.17327.82688-.31077 1.6506-.41282 2.4683.0585.1112.07105.24453.03869.38965-.000525.0022-.001.0045-.0016.0067-.08461.36376-.43874.76073-.90503 1.0376l.78312 1.3171c.74619-.44146 1.5168-.84598 2.3066-1.2118l-.99684-2.1451c-.27169-.62036-.5424-1.2412-.81214-1.8625zm2.8755-1.1591c-.25627.8051-.47678 1.6112-.66184 2.4154.04694.11675.04584.25087-.0012.39216-.00075.0022-.0015.0043-.0023.0065-.12146.3538-.51503.71344-1.0086.94163l.64492 1.3936c.79044-.36458 1.6-.69043 2.4237-.97578l-.77495-2.2368c-.2076-.64522-.41418-1.2908-.61974-1.9367zm2.979-.85891c-.33665.77392-.63754 1.553-.90298 2.3343.03489.1209.02024.25421-.04088.39004-.000965.0021-.0019.0042-.0029.0062-.15659.3397-.5846.65804-1.0992.83541l.5008 1.4529c.82411-.28406 1.6622-.5276 2.5091-.72883l-.54397-2.3021c-.14106-.66243-.28106-1.3251-.42001-1.9879zm3.0503-.54759c-.4144.73335-.79304 1.476-1.1362 2.225.02235.12363-.0058.25456-.08027.38328-.0012.002-.0023.0039-.0035.0059-.19002.32148-.64745.59454-1.1767.71892l.35075 1.495c.8472-.1999 1.7032-.35747 2.5628-.47095l-.30386-2.3409c-.072073-.67199-.14305-1.3441-.21294-2.0163zm3.0893-.22517c-.48952.68338-.94328 1.3802-1.3616 2.0875.0093.12496-.03217.25191-.11941.37188-.0014.00183-.0027.00366-.0041.00549-.22175.29914-.70357.52291-1.2413.59216l.19477 1.5199c.85972-.11208 1.723-.18005 2.5847-.20213l-.05458-2.3531c-.00064-.67391-.000147-1.3478.0015-2.0217zm3.0961.10836c-.56201.62402-1.0883 1.2656-1.5791 1.9219-.0042.12488-.05897.24627-.15829.35584-.0015.00167-.0031.00334-.0046.005-.25178.27272-.75297.44314-1.2928.45513l.03286 1.5276c.86166-.02063 1.7217.0047 2.5749.07762l.20383-2.3389c.07324-.66819.14765-1.3363.22324-2.0042zm3.0706.45301c-.63187.55527-1.228 1.1323-1.7887 1.7281-.01817.12339-.08617.23764-.19692.33517-.0017.00148-.0034.00296-.0052.00444-.28013.24221-.79562.35522-1.3314.30782l-.13498 1.5181c.85303.07448 1.6992.19666 2.5334.36831l.4714-2.2981c.14957-.65483.30034-1.3094.45234-1.9637zm3.0129.80876c-.6991.47713-1.3625.98012-1.9904 1.5061-.03266.1205-.11377.226-.23529.30985-.0019.0013-.0038.0025-.0057.0038-.30683.20763-.8315.25913-1.3569.15025l-.30876 1.4914c.83382.17322 1.6556.39595 2.4602.66994l.74803-2.2309c.22838-.63382.45798-1.2673.68882-1.9003zm2.923 1.1756c-.7637.38959-1.4917.80919-2.1842 1.2559-.04763.1162-.14176.21138-.2734.2799-.002.001-.0041.0021-.0061.0031-.33191.16898-.86057.15488-1.3694-.0176l-.48846 1.4474c.80404.27562 1.5908.60253 2.3552.9825l1.0338-2.1372c.30956-.60517.62041-1.2099.93255-1.814z" style="fill:none;paint-order:normal;stroke-linecap:round;stroke-linejoin:round;stroke-width:2.1167;stroke:#000"/>
      <path d="m41.853 23.949a12.956 12.362 0 015.8742 16.543 12.956 12.362 0 01-17.328 5.6338 12.956 12.362 0 01-5.9351-16.523 12.956 12.362 0 0117.307-5.6919" style="fill:none;stroke-linecap:round;stroke-linejoin:round;stroke-width:2.6458;stroke:#000"/>
      <path d="m37.682 31.844a3.5524 3.5524 0 011.6106 4.7539 3.5524 3.5524 0 01-4.7511 1.619 3.5524 3.5524 0 01-1.6273-4.7483 3.5524 3.5524 0 014.7454-1.6357" style="fill:none;stroke-linecap:round;stroke-linejoin:round;stroke-width:2.6458;stroke:#000"/>
      <path d="m32.554 35.028 3.5524-12.362 3.5524 12.362-3.5524 12.362-3.5524-12.362" style="fill:none;stroke-linejoin:round;stroke-width:2.6458;stroke:#000"/>
      <path d="m36.106 22.667-2.7482 9.5627-10.208 2.7988 10.208 2.7988 2.7482 9.5627 2.7482-9.5627 10.208-2.7988-10.208-2.7993z" style="fill:none;stroke-linejoin:round;stroke-width:2.6458;stroke:#000"/>
      <path d="m44.732 17.653a19.387 19.387 0 018.7903 25.945 19.387 19.387 0 01-25.93 8.8359 19.387 19.387 0 01-8.8814-25.914 19.387 19.387 0 0125.899-8.927" style="fill:none;stroke-linecap:round;stroke-linejoin:round;stroke-width:1.3229;stroke:#000"/>
    </g>
    <g transform="matrix(2.0921 0 0 2.0921 -196.29 83.363)" style="fill:none;stroke:#000">
      <path d="m128.45 15.215a21.926 22.585 0 019.9412 30.225 21.926 22.585 0 01-29.325 10.293 21.926 22.585 0 01-10.044-30.189 21.926 22.585 0 0129.29-10.4" style="fill:none;stroke-linecap:round;stroke-linejoin:round;stroke-width:5;stroke:#000"/>
      <path d="m126.5 19.741-.14874.3005m5.7167 4.2829-.26112.20518m3.5454 6.2565-.32125.09217m.93812 7.1154-.32914-.03856m-2.0945 6.8393-.27865-.18124m-4.8716 5.2233-.17908-.28074m-6.5706 2.946-.0617-.32801m-7.1556.23078.0734-.32307m-6.5562-2.8574.21056-.2558m-4.7045-5.3925.29719-.15193m-2.3202-6.8172.33163-.03018m.5039-7.1287.31387.10945m3.5812-6.1883.23193.2367m5.8458-4.1599.12372.31047m6.9965-1.6677-.002.33208m7.0349 1.2663-.14663.30154" style="fill:none;stroke-linecap:round;stroke-linejoin:round;stroke-width:1.0583;stroke:#000"/>
      <path d="m120.42 19.488c-1.6854 6.29-2.3882 10.779-5.056 18.87v3.4918h3.4918l1.2842-2.2236c1.9682-4.3006 5.2888-7.6295 7.9344-11.443-3.1668 3.1668-5.2071 5.6473-9.2816 9.3679-.40456-6.1156 1.1267-12.038 1.6273-18.063z" style="fill:none;stroke-linecap:round;stroke-linejoin:round;stroke-width:1.0583;stroke:#000"/>
      <path d="m118.79 37.551-3.4287 4.299" style="fill:none;stroke-linecap:round;stroke-linejoin:round;stroke-width:1.0583;stroke:#000"/>
      <path d="m125.17 22.432a14.532 14.532 0 016.589 19.448 14.532 14.532 0 01-19.436 6.6232 14.532 14.532 0 01-6.6573-19.425 14.532 14.532 0 0119.413-6.6915" style="fill:none;stroke-linecap:round;stroke-linejoin:round;stroke-width:1.0583;stroke:#000"/>
      <path d="m123.49 25.819a10.753 10.753 0 014.8756 14.391 10.753 10.753 0 01-14.382 4.9009 10.753 10.753 0 01-4.9262-14.374 10.753 10.753 0 0114.365-4.9515" style="fill:none;stroke-linecap:round;stroke-linejoin:round;stroke-width:1.0583;stroke:#000"/>
    </g>
  </g>
</svg>
