<svg version="1.1" viewBox="0 0 1000 1000" xmlns="http://www.w3.org/2000/svg">
  <g transform="translate(54.021)">
    <g transform="translate(1.0245e-5)">
      <g transform="matrix(.95621 0 0 .95621 -332.89 855.08)">
        <path d="m421.57-616.24 27.393 39.31a27.412 27.412 0 01-15.303 24.61 27.412 27.412 0 01-36.663-12.493 27.412 27.412 0 01-2.8196-12.117z" style="stroke-dashoffset:3.7;stroke-linecap:round;stroke-linejoin:round;stroke-width:.43937;stroke:#000"/>
        <path d="m389.22-463.43 104.6-104.6-72.118 189.26v.59703l-.11326-.29852-.11423.29852v-.59703z" style="stroke-dashoffset:3.7;stroke-linecap:round;stroke-linejoin:round;stroke-width:2.4572;stroke:#000"/>
        <path d="m360.96-537.6 80.562 21.866-52.302 52.302z" style="fill:none;stroke-dashoffset:3.7;stroke-linecap:round;stroke-linejoin:round;stroke-width:2.4572;stroke:#000"/>
        <path d="m439.57-635.6a69.331 69.331 0 007.1116 30.646 69.331 69.331 0 0047.14 36.912l-52.303 52.303-80.562-21.866-11.597-30.434a69.331 69.331 0 0016.151-5.3176 69.331 69.331 0 0038.542-62.244z" style="fill:none;stroke-dashoffset:3.7;stroke-linecap:round;stroke-linejoin:round;stroke-width:2.4572;stroke:#000"/>
        <path d="m375.38-771.45 118.48 68.406a69.331 69.331 0 00-15.311 5.0949l-.43769.21405a69.331 69.331 0 00-38.546 62.137h-35.518a69.331 69.331 0 00-6.7814-30.427 69.331 69.331 0 00-47.881-37.217z" style="stroke-dashoffset:3.7;stroke-linecap:round;stroke-linejoin:round;stroke-width:2.4572;stroke:#000"/>
        <path d="m393.82-760.8 63.963-36.929 36.08 94.688z" style="fill:none;stroke-dashoffset:3.7;stroke-linecap:round;stroke-linejoin:round;stroke-width:2.4572;stroke:#000"/>
        <path d="m421.7-893.01v.59703l36.081 94.688-63.963 36.929-18.441-10.647 46.095-120.97v-.59703l.11423.29851z" style="fill:none;stroke-dashoffset:3.7;stroke-linecap:round;stroke-linejoin:round;stroke-width:2.4572;stroke:#000"/>
      </g>
      <g transform="matrix(.46993 0 0 .46993 -172.9 642.41)">
        <path d="m517.53 274.05-55.738 79.988a55.779 55.779 0 0031.138 50.077 55.779 55.779 0 0074.601-25.421 55.779 55.779 0 005.7373-24.656z" style="stroke-dashoffset:3.7;stroke-linecap:round;stroke-linejoin:round;stroke-width:.89403;stroke:#000"/>
        <path d="m583.38 584.98-212.85-212.85 146.75 385.11v1.2148l.23047-.60742.23243.60742v-1.2148z" style="stroke-dashoffset:3.7;stroke-linecap:round;stroke-linejoin:round;stroke-width:5;stroke:#000"/>
        <path d="m640.88 434.06-163.93 44.492 106.42 106.42z" style="fill:none;stroke-dashoffset:3.7;stroke-linecap:round;stroke-linejoin:round;stroke-width:5;stroke:#000"/>
        <path d="m480.92 234.66a141.08 141.08 0 01-14.471 62.359 141.08 141.08 0 01-95.92 75.109l106.43 106.43 163.93-44.492 23.598-61.928a141.08 141.08 0 01-32.863-10.82 141.08 141.08 0 01-78.426-126.65z" style="fill:none;stroke-dashoffset:3.7;stroke-linecap:round;stroke-linejoin:round;stroke-width:5;stroke:#000"/>
        <path d="m611.53-41.771-241.09 139.19a141.08 141.08 0 0131.154 10.367l.89062.43555a141.08 141.08 0 0178.434 126.44h72.271a141.08 141.08 0 0113.799-61.912 141.08 141.08 0 0197.428-75.729z" style="stroke-dashoffset:3.7;stroke-linecap:round;stroke-linejoin:round;stroke-width:5;stroke:#000"/>
        <path d="m574.01-20.107-130.15-75.143-73.416 192.67z" style="fill:none;stroke-dashoffset:3.7;stroke-linecap:round;stroke-linejoin:round;stroke-width:5;stroke:#000"/>
        <path d="m517.27-289.14v1.2148l-73.418 192.67 130.15 75.143 37.523-21.664-93.795-246.15v-1.2148l-.23243.60742z" style="fill:none;stroke-dashoffset:3.7;stroke-linecap:round;stroke-linejoin:round;stroke-width:5;stroke:#000"/>
      </g>
    </g>
    <g transform="matrix(-1 0 0 1 360.55 -2.029e-6)">
      <g transform="matrix(.95621 0 0 .95621 -332.89 855.08)">
        <path d="m421.57-616.24 27.393 39.31a27.412 27.412 0 01-15.303 24.61 27.412 27.412 0 01-36.663-12.493 27.412 27.412 0 01-2.8196-12.117z" style="stroke-dashoffset:3.7;stroke-linecap:round;stroke-linejoin:round;stroke-width:.43937;stroke:#000"/>
        <path d="m389.22-463.43 104.6-104.6-72.118 189.26v.59703l-.11326-.29852-.11423.29852v-.59703z" style="stroke-dashoffset:3.7;stroke-linecap:round;stroke-linejoin:round;stroke-width:2.4572;stroke:#000"/>
        <path d="m360.96-537.6 80.562 21.866-52.302 52.302z" style="fill:none;stroke-dashoffset:3.7;stroke-linecap:round;stroke-linejoin:round;stroke-width:2.4572;stroke:#000"/>
        <path d="m439.57-635.6a69.331 69.331 0 007.1116 30.646 69.331 69.331 0 0047.14 36.912l-52.303 52.303-80.562-21.866-11.597-30.434a69.331 69.331 0 0016.151-5.3176 69.331 69.331 0 0038.542-62.244z" style="fill:none;stroke-dashoffset:3.7;stroke-linecap:round;stroke-linejoin:round;stroke-width:2.4572;stroke:#000"/>
        <path d="m375.38-771.45 118.48 68.406a69.331 69.331 0 00-15.311 5.0949l-.43769.21405a69.331 69.331 0 00-38.546 62.137h-35.518a69.331 69.331 0 00-6.7814-30.427 69.331 69.331 0 00-47.881-37.217z" style="stroke-dashoffset:3.7;stroke-linecap:round;stroke-linejoin:round;stroke-width:2.4572;stroke:#000"/>
        <path d="m393.82-760.8 63.963-36.929 36.08 94.688z" style="fill:none;stroke-dashoffset:3.7;stroke-linecap:round;stroke-linejoin:round;stroke-width:2.4572;stroke:#000"/>
        <path d="m421.7-893.01v.59703l36.081 94.688-63.963 36.929-18.441-10.647 46.095-120.97v-.59703l.11423.29851z" style="fill:none;stroke-dashoffset:3.7;stroke-linecap:round;stroke-linejoin:round;stroke-width:2.4572;stroke:#000"/>
      </g>
      <g transform="matrix(.46993 0 0 .46993 -172.9 642.41)">
        <path d="m517.53 274.05-55.738 79.988a55.779 55.779 0 0031.138 50.077 55.779 55.779 0 0074.601-25.421 55.779 55.779 0 005.7373-24.656z" style="stroke-dashoffset:3.7;stroke-linecap:round;stroke-linejoin:round;stroke-width:.89403;stroke:#000"/>
        <path d="m583.38 584.98-212.85-212.85 146.75 385.11v1.2148l.23047-.60742.23243.60742v-1.2148z" style="stroke-dashoffset:3.7;stroke-linecap:round;stroke-linejoin:round;stroke-width:5;stroke:#000"/>
        <path d="m640.88 434.06-163.93 44.492 106.42 106.42z" style="fill:none;stroke-dashoffset:3.7;stroke-linecap:round;stroke-linejoin:round;stroke-width:5;stroke:#000"/>
        <path d="m480.92 234.66a141.08 141.08 0 01-14.471 62.359 141.08 141.08 0 01-95.92 75.109l106.43 106.43 163.93-44.492 23.598-61.928a141.08 141.08 0 01-32.863-10.82 141.08 141.08 0 01-78.426-126.65z" style="fill:none;stroke-dashoffset:3.7;stroke-linecap:round;stroke-linejoin:round;stroke-width:5;stroke:#000"/>
        <path d="m611.53-41.771-241.09 139.19a141.08 141.08 0 0131.154 10.367l.89062.43555a141.08 141.08 0 0178.434 126.44h72.271a141.08 141.08 0 0113.799-61.912 141.08 141.08 0 0197.428-75.729z" style="stroke-dashoffset:3.7;stroke-linecap:round;stroke-linejoin:round;stroke-width:5;stroke:#000"/>
        <path d="m574.01-20.107-130.15-75.143-73.416 192.67z" style="fill:none;stroke-dashoffset:3.7;stroke-linecap:round;stroke-linejoin:round;stroke-width:5;stroke:#000"/>
        <path d="m517.27-289.14v1.2148l-73.418 192.67 130.15 75.143 37.523-21.664-93.795-246.15v-1.2148l-.23243.60742z" style="fill:none;stroke-dashoffset:3.7;stroke-linecap:round;stroke-linejoin:round;stroke-width:5;stroke:#000"/>
      </g>
    </g>
  </g>
  <g transform="translate(514.08)">
    <g transform="translate(1.0245e-5)">
      <g transform="matrix(.95621 0 0 .95621 -332.89 855.08)">
        <path d="m421.57-616.24 27.393 39.31a27.412 27.412 0 01-15.303 24.61 27.412 27.412 0 01-36.663-12.493 27.412 27.412 0 01-2.8196-12.117z" style="stroke-dashoffset:3.7;stroke-linecap:round;stroke-linejoin:round;stroke-width:.43937;stroke:#000"/>
        <path d="m389.22-463.43 104.6-104.6-72.118 189.26v.59703l-.11326-.29852-.11423.29852v-.59703z" style="stroke-dashoffset:3.7;stroke-linecap:round;stroke-linejoin:round;stroke-width:2.4572;stroke:#000"/>
        <path d="m360.96-537.6 80.562 21.866-52.302 52.302z" style="fill:none;stroke-dashoffset:3.7;stroke-linecap:round;stroke-linejoin:round;stroke-width:2.4572;stroke:#000"/>
        <path d="m439.57-635.6a69.331 69.331 0 007.1116 30.646 69.331 69.331 0 0047.14 36.912l-52.303 52.303-80.562-21.866-11.597-30.434a69.331 69.331 0 0016.151-5.3176 69.331 69.331 0 0038.542-62.244z" style="fill:none;stroke-dashoffset:3.7;stroke-linecap:round;stroke-linejoin:round;stroke-width:2.4572;stroke:#000"/>
        <path d="m375.38-771.45 118.48 68.406a69.331 69.331 0 00-15.311 5.0949l-.43769.21405a69.331 69.331 0 00-38.546 62.137h-35.518a69.331 69.331 0 00-6.7814-30.427 69.331 69.331 0 00-47.881-37.217z" style="stroke-dashoffset:3.7;stroke-linecap:round;stroke-linejoin:round;stroke-width:2.4572;stroke:#000"/>
        <path d="m393.82-760.8 63.963-36.929 36.08 94.688z" style="fill:none;stroke-dashoffset:3.7;stroke-linecap:round;stroke-linejoin:round;stroke-width:2.4572;stroke:#000"/>
        <path d="m421.7-893.01v.59703l36.081 94.688-63.963 36.929-18.441-10.647 46.095-120.97v-.59703l.11423.29851z" style="fill:none;stroke-dashoffset:3.7;stroke-linecap:round;stroke-linejoin:round;stroke-width:2.4572;stroke:#000"/>
      </g>
      <g transform="matrix(.46993 0 0 .46993 -172.9 642.41)">
        <path d="m517.53 274.05-55.738 79.988a55.779 55.779 0 0031.138 50.077 55.779 55.779 0 0074.601-25.421 55.779 55.779 0 005.7373-24.656z" style="stroke-dashoffset:3.7;stroke-linecap:round;stroke-linejoin:round;stroke-width:.89403;stroke:#000"/>
        <path d="m583.38 584.98-212.85-212.85 146.75 385.11v1.2148l.23047-.60742.23243.60742v-1.2148z" style="stroke-dashoffset:3.7;stroke-linecap:round;stroke-linejoin:round;stroke-width:5;stroke:#000"/>
        <path d="m640.88 434.06-163.93 44.492 106.42 106.42z" style="fill:none;stroke-dashoffset:3.7;stroke-linecap:round;stroke-linejoin:round;stroke-width:5;stroke:#000"/>
        <path d="m480.92 234.66a141.08 141.08 0 01-14.471 62.359 141.08 141.08 0 01-95.92 75.109l106.43 106.43 163.93-44.492 23.598-61.928a141.08 141.08 0 01-32.863-10.82 141.08 141.08 0 01-78.426-126.65z" style="fill:none;stroke-dashoffset:3.7;stroke-linecap:round;stroke-linejoin:round;stroke-width:5;stroke:#000"/>
        <path d="m611.53-41.771-241.09 139.19a141.08 141.08 0 0131.154 10.367l.89062.43555a141.08 141.08 0 0178.434 126.44h72.271a141.08 141.08 0 0113.799-61.912 141.08 141.08 0 0197.428-75.729z" style="stroke-dashoffset:3.7;stroke-linecap:round;stroke-linejoin:round;stroke-width:5;stroke:#000"/>
        <path d="m574.01-20.107-130.15-75.143-73.416 192.67z" style="fill:none;stroke-dashoffset:3.7;stroke-linecap:round;stroke-linejoin:round;stroke-width:5;stroke:#000"/>
        <path d="m517.27-289.14v1.2148l-73.418 192.67 130.15 75.143 37.523-21.664-93.795-246.15v-1.2148l-.23243.60742z" style="fill:none;stroke-dashoffset:3.7;stroke-linecap:round;stroke-linejoin:round;stroke-width:5;stroke:#000"/>
      </g>
    </g>
    <g transform="matrix(-1 0 0 1 360.55 -2.029e-6)">
      <g transform="matrix(.95621 0 0 .95621 -332.89 855.08)">
        <path d="m421.57-616.24 27.393 39.31a27.412 27.412 0 01-15.303 24.61 27.412 27.412 0 01-36.663-12.493 27.412 27.412 0 01-2.8196-12.117z" style="stroke-dashoffset:3.7;stroke-linecap:round;stroke-linejoin:round;stroke-width:.43937;stroke:#000"/>
        <path d="m389.22-463.43 104.6-104.6-72.118 189.26v.59703l-.11326-.29852-.11423.29852v-.59703z" style="stroke-dashoffset:3.7;stroke-linecap:round;stroke-linejoin:round;stroke-width:2.4572;stroke:#000"/>
        <path d="m360.96-537.6 80.562 21.866-52.302 52.302z" style="fill:none;stroke-dashoffset:3.7;stroke-linecap:round;stroke-linejoin:round;stroke-width:2.4572;stroke:#000"/>
        <path d="m439.57-635.6a69.331 69.331 0 007.1116 30.646 69.331 69.331 0 0047.14 36.912l-52.303 52.303-80.562-21.866-11.597-30.434a69.331 69.331 0 0016.151-5.3176 69.331 69.331 0 0038.542-62.244z" style="fill:none;stroke-dashoffset:3.7;stroke-linecap:round;stroke-linejoin:round;stroke-width:2.4572;stroke:#000"/>
        <path d="m375.38-771.45 118.48 68.406a69.331 69.331 0 00-15.311 5.0949l-.43769.21405a69.331 69.331 0 00-38.546 62.137h-35.518a69.331 69.331 0 00-6.7814-30.427 69.331 69.331 0 00-47.881-37.217z" style="stroke-dashoffset:3.7;stroke-linecap:round;stroke-linejoin:round;stroke-width:2.4572;stroke:#000"/>
        <path d="m393.82-760.8 63.963-36.929 36.08 94.688z" style="fill:none;stroke-dashoffset:3.7;stroke-linecap:round;stroke-linejoin:round;stroke-width:2.4572;stroke:#000"/>
        <path d="m421.7-893.01v.59703l36.081 94.688-63.963 36.929-18.441-10.647 46.095-120.97v-.59703l.11423.29851z" style="fill:none;stroke-dashoffset:3.7;stroke-linecap:round;stroke-linejoin:round;stroke-width:2.4572;stroke:#000"/>
      </g>
      <g transform="matrix(.46993 0 0 .46993 -172.9 642.41)">
        <path d="m517.53 274.05-55.738 79.988a55.779 55.779 0 0031.138 50.077 55.779 55.779 0 0074.601-25.421 55.779 55.779 0 005.7373-24.656z" style="stroke-dashoffset:3.7;stroke-linecap:round;stroke-linejoin:round;stroke-width:.89403;stroke:#000"/>
        <path d="m583.38 584.98-212.85-212.85 146.75 385.11v1.2148l.23047-.60742.23243.60742v-1.2148z" style="stroke-dashoffset:3.7;stroke-linecap:round;stroke-linejoin:round;stroke-width:5;stroke:#000"/>
        <path d="m640.88 434.06-163.93 44.492 106.42 106.42z" style="fill:none;stroke-dashoffset:3.7;stroke-linecap:round;stroke-linejoin:round;stroke-width:5;stroke:#000"/>
        <path d="m480.92 234.66a141.08 141.08 0 01-14.471 62.359 141.08 141.08 0 01-95.92 75.109l106.43 106.43 163.93-44.492 23.598-61.928a141.08 141.08 0 01-32.863-10.82 141.08 141.08 0 01-78.426-126.65z" style="fill:none;stroke-dashoffset:3.7;stroke-linecap:round;stroke-linejoin:round;stroke-width:5;stroke:#000"/>
        <path d="m611.53-41.771-241.09 139.19a141.08 141.08 0 0131.154 10.367l.89062.43555a141.08 141.08 0 0178.434 126.44h72.271a141.08 141.08 0 0113.799-61.912 141.08 141.08 0 0197.428-75.729z" style="stroke-dashoffset:3.7;stroke-linecap:round;stroke-linejoin:round;stroke-width:5;stroke:#000"/>
        <path d="m574.01-20.107-130.15-75.143-73.416 192.67z" style="fill:none;stroke-dashoffset:3.7;stroke-linecap:round;stroke-linejoin:round;stroke-width:5;stroke:#000"/>
        <path d="m517.27-289.14v1.2148l-73.418 192.67 130.15 75.143 37.523-21.664-93.795-246.15v-1.2148l-.23243.60742z" style="fill:none;stroke-dashoffset:3.7;stroke-linecap:round;stroke-linejoin:round;stroke-width:5;stroke:#000"/>
      </g>
    </g>
  </g>
</svg>
