<svg version="1.1" viewBox="0 0 1000 1000" xmlns="http://www.w3.org/2000/svg">
  <g>
    <g transform="matrix(1.0666 0 0 1.0666 28.686 -24.912)">
      <g transform="matrix(.93789 0 0 .93789 -27.189 23.357)">
        <g transform="matrix(1.6745 0 0 1.6745 2216.1 1558.2)">
          <path d="m-1275.2-862.77v.002-.002zm0 .002c-14.597 2.5582-28.224 7.446-40.494 15.588-3.9358 5.1102-7.7723 11.473-6.9141 17.777.5612 4.1227 2.2527 7.6803 4.1973 11.111l3.3574 2.0176c-.5485-3.404-.1875-6.8774.9629-10.412 3.4569-3.3006 7.5709-1.4932 10.371 1.2344 7.0534 6.8704 9.2784 15.686 12.924 23.756l15.561 4.3672c-1.5035-1.8535-12.916-16.098-15.434-25.266-1.3732-5.0009.2461-15.555.2461-15.555 3.8495-10.655 8.767-19.176 15.223-24.619zm-7.4766 3.5254c-4.6173 6.1853-7.5171 12.829-10.432 19.469l-21.082-3.3184 3.0547-4.9316c9.1097-4.5307 18.214-9.0728 28.459-11.219z" style="fill:none;stroke-linecap:round;stroke-linejoin:round;stroke-width:1.5;stroke:#000"/>
          <path d="m-1182.4-875.37c-21.325-.16069-43.548 6.3842-63.484 12.652l13.764 32.248c2.8112-.71646 5.7253-1.4597 8.5273-2.1738 16.832-4.9103 35.072-10.093 81.111-20.67 4.0909-1.0426 7.7751-1.9827 11.936-3.043-19.226-4.674-33.444-18.875-51.854-19.014zm.1875 5.7246c7.6319-.152 21.704 7.6394 34.703 14.107l-3.5781 1.6582s-5.1864-2.2217-7.9453-2.3574c-8.613-.42372-17.925.59602-25.404 4.8887-1.0731.61593-2.4434 2.7949-2.4434 2.7949-2.5492-2.3207-3.6997-5.5646-5.9355-8.0312-1.6328-1.8013-3.4376-3.4068-5.4141-4.8887 0 0 2.8939-.93264 3.1426-2.1836.2833-1.4251-2.3555-3.666-2.3555-3.666l13.793-2.1836c.4493-.0835.9287-.12854 1.4375-.13867z" style="stroke-linecap:round;stroke-linejoin:round;stroke:#000"/>
          <path d="m-1054-844.17-87.479 36.498-4.1972 19.752 4.748 18.705c7.1364-.45758 14.213-1.4357 19.203-3.3945 64.287-25.236 87.408-48.396 87.408-48.396v-8.8887l-8.8886-12.594zm9.5 3.4102 2.1601 2.2227-.8652 7.2832-4.5059 2.4707h-1.2344l-.123.74024-4.8164 2.5918-3.209-8.457zm-55.178 24.863.5235 11.393-10.432 5.8926-2.2266-.34961-12.572 6.6348-2.0938-11.174.5664-1.877 11.654-5.0644 1.2227.4375.7852-1.0918z" style="stroke-linecap:round;stroke-linejoin:round;stroke:#000"/>
          <path d="m-1241.9-907.74-5.7617 2.9688-8.5547.52539-11.699 4.1875-27.598 2.7051-.053.0156 4.8339 6.5078 29.686-1.0098 8.4961-.53516 9.6035-5.9375 2.4434-4.8887z" style="stroke-linecap:round;stroke-linejoin:round;stroke:#000"/>
          <path d="m-1225-868.72-26.174.49414-23.951 5.4316c-6.4987 5.4393-11.444 13.99-15.311 24.693 0 0-1.6193 10.554-.2461 15.555 2.6899 9.7961 15.977 25.953 15.977 25.953l-15.713-4.1719c-3.8942-8.303-6.0049-17.519-13.314-24.639-2.8002-2.7276-6.9141-4.535-10.371-1.2344-1.285 3.9483-1.5948 7.8218-.7402 11.605 1.6414 1.8124 2.4713 3.8961 2.7168 6.1738 1.1165 9.1584 4.5467 16.87 9.3828 23.703 2.7047 2.6286 4.0598 2.2214 5.9258 2.9629 6.4107-.6311 9.3935-1.4898 12.473-4.6914 1.8541-1.9278 3.6269-3.5358 2.5566-7.5938l69.592 22.348s9.5672 31.542 30.379 28.982c16.614-2.0431 20.953-15.016 20.953-15.016l38.062 3.4922c66.782-42.296 78.219-48.539 78.219-48.539-2.1763-1.299-4.2458-2.7166-4.3672-6.2988-1.4722 1.0084-3.0617 2.0689-4.7774 3.1797-1.727 1.118-3.5798 2.2865-5.5624 3.498s-4.0949 2.4671-6.3418 3.7617c-2.2468 1.2947-4.6285 2.6286-7.1485 3.9961-2.52 1.3675-5.1785 2.7673-7.9805 4.1973s-5.747 2.8888-8.8398 4.3711-6.3342 2.9894-9.7266 4.5137c-3.3923 1.5242-6.9357 3.0652-10.637 4.6211-3.7006 1.5558-7.5581 3.1258-11.576 4.7031-.6238.24481-1.2799.47436-1.9649.68946s-1.3984.41641-2.1367.60351c-1.4767.3744-3.0528.6936-4.6953.9668-1.6425.2733-3.3527.5009-5.0977.6875-1.745.1867-3.5245.33287-5.3086.44727-1.7026.1092-3.4097.18758-5.0918.24218-1.6821.055-3.3386.0857-4.9453.0977-3.2133.023-6.221-.028-8.8027-.10547-2.5818-.078-4.7394-.18188-6.25-.26758-1.5107-.086-2.375-.15234-2.375-.15234s-.2659-.52532-.7617-1.4492c-.4959-.9239-1.2207-2.2463-2.1426-3.8398-.9219-1.5934-2.0402-3.4579-3.3184-5.4668-.6391-1.0044-1.3179-2.045-2.0332-3.1055-.7149-1.0606-1.4657-2.1417-2.248-3.2266-.7824-1.0849-1.5966-2.1744-2.4375-3.252-.8409-1.0776-1.7089-2.1434-2.5996-3.1816-.8908-1.0383-1.8045-2.0483-2.7364-3.0156-.9318-.9673-1.8814-1.8913-2.8457-2.7559-.9642-.8645-1.9437-1.6704-2.9316-2.4004-.494-.365-.9901-.71171-1.4883-1.0371s-.9986-.62836-1.5-.91016-1.0043-.54109-1.5078-.77539-1.0072-.44415-1.5117-.62695c-.5046-.1827-1.0093-.3395-1.5137-.4668-.5044-.1272-1.0084-.22516-1.5117-.29296-.694-.093-1.3593-.15706-1.9961-.19336-.6368-.036-1.2443-.0434-1.8262-.0254-.5819.017-1.1385.059-1.6679.12696-.5293.068-1.0327.16119-1.5118.27539-.4791.1143-.9321.2507-1.3632.4082-.431.1574-.8393.33601-1.2247.53321-.3853.19709-.7498.41318-1.0918.64648-.3418.2334-.6621.484-.9628.75-.301.2661-.5818.5466-.8438.8418-.262.2953-.505.60488-.7305.92578-.2254.3209-.4338.65299-.625.99609-.1911.3431-.3642.6968-.5234 1.0586-.3184.7235-.5751 1.4806-.7793 2.2578s-.3566 1.574-.4648 2.377c-.1083.8029-.1725 1.6115-.2032 2.4121-.031.8006-.029 1.593 0 2.3633.029.7702.083 1.5186.1524 2.2305.07.7119.1558 1.3881.248 2.0137.1845 1.2511.3951 2.3015.5606 3.0391.1654.7376.2851 1.1621.2851 1.1621l-21.728-5.6777-.023-.0117-2.8672-19.945 8.543-23.43-14.047-32.916zm-31.201 15.635c1.4473-.026 2.8027.2989 3.9375 1.1543 3.1165 2.3493 1.3477 11.631 1.3477 11.631-1e-4 0-1.6591.51892-1.75 1.2246-.4163 3.2148 6.2832 7.4238 6.2832 7.4238l4.2773 9.3848-.086 10.039-5.3262 7.5078-8.8164 2.2695s-8.4748-9.4825-9.8028-15.43c-1.1218-5.0236-5.4292-9.9961-4.83-13.557.5051-2.8144 4.3778-3.1429 4.789-5.5527.496-2.9074-3.2304-8.2383-3.2304-8.2383.2718-2.0011 2.0107-3.5147 3.6855-4.4805 2.7083-1.5616 6.3373-3.3198 9.5215-3.377zm-49.029 35.756c4.5599.1314 7.1619 8.1664 8.0547 13.004.9767 5.2921 2.3947 14.6-2.9258 15.408-5.2743.8008-8.3612-8.1691-9.248-13.43-.8442-5.0078-1.7968-13.897 3.1816-14.9.3215-.065.6335-.091.9375-.082zm107.89 25.652v.004c7.8131.065 14.486 11.915 16.043 19.992 1.3312 6.9051-.5225 18.317-7.4063 19.754-7.6349 1.5943-14.271-9.2591-16.297-16.791-2.0273-7.5374-1.888-20.804 5.6797-22.715.5402-.1364 1.0758-.21317 1.6074-.23438.1246-.01.249-.01.373-.01z" style="stroke-linecap:round;stroke-linejoin:round;stroke:#000"/>
          <path d="m-1130.4-856.07c-64.105 14.501-80.054 19.657-101.73 25.926l-8.1484 23.457 2.4688 20.002 21.728 5.6778s-7.6376-27.189 14.568-24.197c16.105 2.1697 33.088 35.803 33.088 35.803s13.844 1.0589 27.465.18551l-4.7481-18.705 4.1973-19.752 87.478-36.498z" style="fill:none;stroke-linecap:round;stroke-linejoin:round;stroke-width:1.8;stroke:#000"/>
          <path d="m-1140.3-925.21-68.396 10.125-17.469 11.094-3.666 10.562 8.9804 23.514 17.176-3.6699 3.3731-22.982c13.913-10.119 30.482-16.253 47.656-21.48l11.606 6.4199 8.1484-4.9395zm-28.766 6.7285.123 2.3457-33.457 14.137-21.606 1.1113 16.543-11.852z" style="fill:none;stroke-linecap:round;stroke-linejoin:round;stroke-width:2;stroke:#000"/>
          <path d="m-1241.2-929.57-7.8574 4.0156 4.1914 7.1582-4.7149.3496-48.887 7.1582-9.7773 8.2051 4.7129 5.2383 7.1582-.87306.8398.97852 27.795-2.7246 11.699-4.1895 8.5547-.52343 5.7617-2.9688 1.3965 4.5391-2.4434 4.8887-9.6035 5.9375-8.4961.53517.289-.0117 9.7793 23.617 25.359-.47851 4.5723-1.1973-8.9805-23.514 7.332-21.125-.873-1.3984-9.9512-2.6172z" style="fill:none;stroke-linecap:round;stroke-linejoin:round;stroke-width:2;stroke:#000"/>
          <path d="m-1183.1-906.67s-.09 2.8985.9166 3.6431c8.3162 6.1508 5.5372-2.4649 30.991-1.5714 2.6585.0933 5.2811-1.9023 6.8966-4.0158.884-1.1565 1.1302-4.2181 1.1302-4.2181l-9.4319-5.2176-30.652 11.451" style="stroke-linecap:round;stroke-linejoin:round;stroke:#000"/>
        </g>
        <g transform="matrix(-1.6745 0 0 1.6745 -1216.1 1558)">
          <path d="m-1275.2-862.77v.002-.002zm0 .002c-14.597 2.5582-28.224 7.446-40.494 15.588-3.9358 5.1102-7.7723 11.473-6.9141 17.777.5612 4.1227 2.2527 7.6803 4.1973 11.111l3.3574 2.0176c-.5485-3.404-.1875-6.8774.9629-10.412 3.4569-3.3006 7.5709-1.4932 10.371 1.2344 7.0534 6.8704 9.2784 15.686 12.924 23.756l15.561 4.3672c-1.5035-1.8535-12.916-16.098-15.434-25.266-1.3732-5.0009.2461-15.555.2461-15.555 3.8495-10.655 8.767-19.176 15.223-24.619zm-7.4766 3.5254c-4.6173 6.1853-7.5171 12.829-10.432 19.469l-21.082-3.3184 3.0547-4.9316c9.1097-4.5307 18.214-9.0728 28.459-11.219z" style="fill:none;stroke-linecap:round;stroke-linejoin:round;stroke-width:1.5;stroke:#000"/>
          <path d="m-1182.4-875.37c-21.325-.16069-43.548 6.3842-63.484 12.652l13.764 32.248c2.8112-.71646 5.7253-1.4597 8.5273-2.1738 16.832-4.9103 35.072-10.093 81.111-20.67 4.0909-1.0426 7.7751-1.9827 11.936-3.043-19.226-4.674-33.444-18.875-51.854-19.014zm.1875 5.7246c7.6319-.152 21.704 7.6394 34.703 14.107l-3.5781 1.6582s-5.1864-2.2217-7.9453-2.3574c-8.613-.42372-17.925.59602-25.404 4.8887-1.0731.61593-2.4434 2.7949-2.4434 2.7949-2.5492-2.3207-3.6997-5.5646-5.9355-8.0312-1.6328-1.8013-3.4376-3.4068-5.4141-4.8887 0 0 2.8939-.93264 3.1426-2.1836.2833-1.4251-2.3555-3.666-2.3555-3.666l13.793-2.1836c.4493-.0835.9287-.12854 1.4375-.13867z" style="stroke-linecap:round;stroke-linejoin:round;stroke:#000"/>
          <path d="m-1054-844.17-87.479 36.498-4.1972 19.752 4.748 18.705c7.1364-.45758 14.213-1.4357 19.203-3.3945 64.287-25.236 87.408-48.396 87.408-48.396v-8.8887l-8.8886-12.594zm9.5 3.4102 2.1601 2.2227-.8652 7.2832-4.5059 2.4707h-1.2344l-.123.74024-4.8164 2.5918-3.209-8.457zm-55.178 24.863.5235 11.393-10.432 5.8926-2.2266-.34961-12.572 6.6348-2.0938-11.174.5664-1.877 11.654-5.0644 1.2227.4375.7852-1.0918z" style="stroke-linecap:round;stroke-linejoin:round;stroke:#000"/>
          <path d="m-1241.9-907.74-5.7617 2.9688-8.5547.52539-11.699 4.1875-27.598 2.7051-.053.0156 4.8339 6.5078 29.686-1.0098 8.4961-.53516 9.6035-5.9375 2.4434-4.8887z" style="stroke-linecap:round;stroke-linejoin:round;stroke:#000"/>
          <path d="m-1225-868.72-26.174.49414-23.951 5.4316c-6.4987 5.4393-11.444 13.99-15.311 24.693 0 0-1.6193 10.554-.2461 15.555 2.6899 9.7961 15.977 25.953 15.977 25.953l-15.713-4.1719c-3.8942-8.303-6.0049-17.519-13.314-24.639-2.8002-2.7276-6.9141-4.535-10.371-1.2344-1.285 3.9483-1.5948 7.8218-.7402 11.605 1.6414 1.8124 2.4713 3.8961 2.7168 6.1738 1.1165 9.1584 4.5467 16.87 9.3828 23.703 2.7047 2.6286 4.0598 2.2214 5.9258 2.9629 6.4107-.6311 9.3935-1.4898 12.473-4.6914 1.8541-1.9278 3.6269-3.5358 2.5566-7.5938l69.592 22.348s9.5672 31.542 30.379 28.982c16.614-2.0431 20.953-15.016 20.953-15.016l38.062 3.4922c66.782-42.296 78.219-48.539 78.219-48.539-2.1763-1.299-4.2458-2.7166-4.3672-6.2988-1.4722 1.0084-3.0617 2.0689-4.7774 3.1797-1.727 1.118-3.5798 2.2865-5.5624 3.498s-4.0949 2.4671-6.3418 3.7617c-2.2468 1.2947-4.6285 2.6286-7.1485 3.9961-2.52 1.3675-5.1785 2.7673-7.9805 4.1973s-5.747 2.8888-8.8398 4.3711-6.3342 2.9894-9.7266 4.5137c-3.3923 1.5242-6.9357 3.0652-10.637 4.6211-3.7006 1.5558-7.5581 3.1258-11.576 4.7031-.6238.24481-1.2799.47436-1.9649.68946s-1.3984.41641-2.1367.60351c-1.4767.3744-3.0528.6936-4.6953.9668-1.6425.2733-3.3527.5009-5.0977.6875-1.745.1867-3.5245.33287-5.3086.44727-1.7026.1092-3.4097.18758-5.0918.24218-1.6821.055-3.3386.0857-4.9453.0977-3.2133.023-6.221-.028-8.8027-.10547-2.5818-.078-4.7394-.18188-6.25-.26758-1.5107-.086-2.375-.15234-2.375-.15234s-.2659-.52532-.7617-1.4492c-.4959-.9239-1.2207-2.2463-2.1426-3.8398-.9219-1.5934-2.0402-3.4579-3.3184-5.4668-.6391-1.0044-1.3179-2.045-2.0332-3.1055-.7149-1.0606-1.4657-2.1417-2.248-3.2266-.7824-1.0849-1.5966-2.1744-2.4375-3.252-.8409-1.0776-1.7089-2.1434-2.5996-3.1816-.8908-1.0383-1.8045-2.0483-2.7364-3.0156-.9318-.9673-1.8814-1.8913-2.8457-2.7559-.9642-.8645-1.9437-1.6704-2.9316-2.4004-.494-.365-.9901-.71171-1.4883-1.0371s-.9986-.62836-1.5-.91016-1.0043-.54109-1.5078-.77539-1.0072-.44415-1.5117-.62695c-.5046-.1827-1.0093-.3395-1.5137-.4668-.5044-.1272-1.0084-.22516-1.5117-.29296-.694-.093-1.3593-.15706-1.9961-.19336-.6368-.036-1.2443-.0434-1.8262-.0254-.5819.017-1.1385.059-1.6679.12696-.5293.068-1.0327.16119-1.5118.27539-.4791.1143-.9321.2507-1.3632.4082-.431.1574-.8393.33601-1.2247.53321-.3853.19709-.7498.41318-1.0918.64648-.3418.2334-.6621.484-.9628.75-.301.2661-.5818.5466-.8438.8418-.262.2953-.505.60488-.7305.92578-.2254.3209-.4338.65299-.625.99609-.1911.3431-.3642.6968-.5234 1.0586-.3184.7235-.5751 1.4806-.7793 2.2578s-.3566 1.574-.4648 2.377c-.1083.8029-.1725 1.6115-.2032 2.4121-.031.8006-.029 1.593 0 2.3633.029.7702.083 1.5186.1524 2.2305.07.7119.1558 1.3881.248 2.0137.1845 1.2511.3951 2.3015.5606 3.0391.1654.7376.2851 1.1621.2851 1.1621l-21.728-5.6777-.023-.0117-2.8672-19.945 8.543-23.43-14.047-32.916zm-31.201 15.635c1.4473-.026 2.8027.2989 3.9375 1.1543 3.1165 2.3493 1.3477 11.631 1.3477 11.631-1e-4 0-1.6591.51892-1.75 1.2246-.4163 3.2148 6.2832 7.4238 6.2832 7.4238l4.2773 9.3848-.086 10.039-5.3262 7.5078-8.8164 2.2695s-8.4748-9.4825-9.8028-15.43c-1.1218-5.0236-5.4292-9.9961-4.83-13.557.5051-2.8144 4.3778-3.1429 4.789-5.5527.496-2.9074-3.2304-8.2383-3.2304-8.2383.2718-2.0011 2.0107-3.5147 3.6855-4.4805 2.7083-1.5616 6.3373-3.3198 9.5215-3.377zm-49.029 35.756c4.5599.1314 7.1619 8.1664 8.0547 13.004.9767 5.2921 2.3947 14.6-2.9258 15.408-5.2743.8008-8.3612-8.1691-9.248-13.43-.8442-5.0078-1.7968-13.897 3.1816-14.9.3215-.065.6335-.091.9375-.082zm107.89 25.652v.004c7.8131.065 14.486 11.915 16.043 19.992 1.3312 6.9051-.5225 18.317-7.4063 19.754-7.6349 1.5943-14.271-9.2591-16.297-16.791-2.0273-7.5374-1.888-20.804 5.6797-22.715.5402-.1364 1.0758-.21317 1.6074-.23438.1246-.01.249-.01.373-.01z" style="stroke-linecap:round;stroke-linejoin:round;stroke:#000"/>
          <path d="m-1130.4-856.07c-64.105 14.501-80.054 19.657-101.73 25.926l-8.1484 23.457 2.4688 20.002 21.728 5.6778s-7.6376-27.189 14.568-24.197c16.105 2.1697 33.088 35.803 33.088 35.803s13.844 1.0589 27.465.18551l-4.7481-18.705 4.1973-19.752 87.478-36.498z" style="fill:none;stroke-linecap:round;stroke-linejoin:round;stroke-width:1.8;stroke:#000"/>
          <path d="m-1140.3-925.21-68.396 10.125-17.469 11.094-3.666 10.562 8.9804 23.514 17.176-3.6699 3.3731-22.982c13.913-10.119 30.482-16.253 47.656-21.48l11.606 6.4199 8.1484-4.9395zm-28.766 6.7285.123 2.3457-33.457 14.137-21.606 1.1113 16.543-11.852z" style="fill:none;stroke-linecap:round;stroke-linejoin:round;stroke-width:2;stroke:#000"/>
          <path d="m-1241.2-929.57-7.8574 4.0156 4.1914 7.1582-4.7149.3496-48.887 7.1582-9.7773 8.2051 4.7129 5.2383 7.1582-.87306.8398.97852 27.795-2.7246 11.699-4.1895 8.5547-.52343 5.7617-2.9688 1.3965 4.5391-2.4434 4.8887-9.6035 5.9375-8.4961.53517.289-.0117 9.7793 23.617 25.359-.47851 4.5723-1.1973-8.9805-23.514 7.332-21.125-.873-1.3984-9.9512-2.6172z" style="fill:none;stroke-linecap:round;stroke-linejoin:round;stroke-width:2;stroke:#000"/>
          <path d="m-1183.1-906.67s-.09 2.8985.9166 3.6431c8.3162 6.1508 5.5372-2.4649 30.991-1.5714 2.6585.0933 5.2811-1.9023 6.8966-4.0158.884-1.1565 1.1302-4.2181 1.1302-4.2181l-9.4319-5.2176-30.652 11.451" style="stroke-linecap:round;stroke-linejoin:round;stroke:#000"/>
        </g>
      </g>
    </g>
    <g transform="matrix(.93789 0 0 .93789 31.049 29.659)">
      <g transform="matrix(.74261 0 0 .74261 870.49 1531.2)">
        <path d="m-536.06-1516-24.199 3.209-23.826 2.4687-1.1113 3.0879-50.373-5.4336.49415 297.79 46.916-6.9141 34.074 11.359 15.432 2.4688 3.8281-1.2344 3.209-257.04.24805-48.644zm-8.8887 19.629.49219 20.742-5.4316 1.4805-.2461-21.728zm-21.236.9883-.49414 23.457-5.4316-.4941v-22.223zm9.3828 0 1.7285 21.977-6.1719.4921.2461-21.48zm5.9258 26.668h4.9395l.98828 21.975-4.9394.248zm-6.1719 1.7265.74023 20.248-4.9375-.4942-.98828-19.506zm-14.814.2481h4.6914l.74024 19.754-5.4316.9863z" style="stroke-width:1px;stroke:#000"/>
        <path d="m-716.55-1602.6.52343 1.0468c.873 2.0955.17578 11.176.17578 11.176l-5.5879 1.2207v7.1582l-7.334 4.3653v5.5293l3.1426-1.3379v375.74l-4.1895 4.8887-2.0957 24.443 177.83-32.604v-9.3828l-34.074-11.359-46.916 6.9141-.49415-297.79 50.373 5.4336 1.1113-3.0879 15.678-1.8515 8.1484-.6172-1.2344-41.236-15.432-2.9629-.98829-7.6543-9.1348-.9864.12305-7.2851-8.1484-3.0859-.3711-9.6309-54.445-7.9004z" style="fill:none;stroke-linecap:round;stroke-linejoin:round;stroke-width:3;stroke:#000"/>
        <path d="m-716.55-1602.6-54.475 28.459.52343 9.2539-6.1113 3.666-.17383 5.414-6.8633 2.793v4.293l-22.295 9.5v18.158l4.8887 2.793-.69922 280.06-2.793 2.7949-.69727 14.666 73.33 52.379 2.0957-24.443 4.1895-4.8887v-375.74l-3.1426 1.3379v-5.5293l7.334-4.3653v-7.1582l5.5879-1.2207s.69722-9.0804-.17578-11.176zm-24.207 97.912.49415 51.854-15.309 2.4688 1.4805-50.371zm-28.643 8.3945-.98633 49.879-10.371 3.4571-1.9766-50.373z" style="stroke-linecap:round;stroke-linejoin:round;stroke-width:3;stroke:#000"/>
        <path d="m-694.9-1505.7 33.872 3.8411 1.3968 51.681-35.967 1.3968z" style="stroke-width:1px;stroke:#000"/>
        <path d="m-687.92-1330.8 26.19-2.0952 2.0952 69.141-27.587 2.7935z" style="stroke-width:1px;stroke:#000"/>
        <path d="m-679.59-1597.6.80268-1.483 5.1236-1.6049.49384-2.2223-1.5432-2.4692s-2.2367-8.4584-.49384-12.099c.55263-1.1544 2.4997-1.1466 3.0865-2.284.5001-.9694.0617-3.2717.0617-3.2717s-1.3042-.3864-1.605-.9259c-.66165-1.1867.12346-4.0742.12346-4.0742-13.001-15.093-21.888-9.9762-29.507.8642 0 0-1.4549 3.8981-.86422 5.7409.56852 1.7737 3.1602 2.2984 3.889 4.0125 1.6435 3.8652.43211 12.593.43211 12.593l-2.0371 1.7901.6768 2.5034z" style="stroke-width:1px;stroke:#000"/>
      </g>
      <g transform="matrix(-.74265 0 0 .74265 -369.29 1531.3)">
        <path d="m-536.06-1516-24.199 3.209-23.826 2.4687-1.1113 3.0879-50.373-5.4336.49415 297.79 46.916-6.9141 34.074 11.359 15.432 2.4688 3.8281-1.2344 3.209-257.04.24805-48.644zm-8.8887 19.629.49219 20.742-5.4316 1.4805-.2461-21.728zm-21.236.9883-.49414 23.457-5.4316-.4941v-22.223zm9.3828 0 1.7285 21.977-6.1719.4921.2461-21.48zm5.9258 26.668h4.9395l.98828 21.975-4.9394.248zm-6.1719 1.7265.74023 20.248-4.9375-.4942-.98828-19.506zm-14.814.2481h4.6914l.74024 19.754-5.4316.9863z" style="stroke-width:1px;stroke:#000"/>
        <path d="m-716.55-1602.6.52343 1.0468c.873 2.0955.17578 11.176.17578 11.176l-5.5879 1.2207v7.1582l-7.334 4.3653v5.5293l3.1426-1.3379v375.74l-4.1895 4.8887-2.0957 24.443 177.83-32.604v-9.3828l-34.074-11.359-46.916 6.9141-.49415-297.79 50.373 5.4336 1.1113-3.0879 15.678-1.8515 8.1484-.6172-1.2344-41.236-15.432-2.9629-.98829-7.6543-9.1348-.9864.12305-7.2851-8.1484-3.0859-.3711-9.6309-54.445-7.9004z" style="fill:none;stroke-linecap:round;stroke-linejoin:round;stroke-width:3;stroke:#000"/>
        <path d="m-716.55-1602.6-54.475 28.459.52343 9.2539-6.1113 3.666-.17383 5.414-6.8633 2.793v4.293l-22.295 9.5v18.158l4.8887 2.793-.69922 280.06-2.793 2.7949-.69727 14.666 73.33 52.379 2.0957-24.443 4.1895-4.8887v-375.74l-3.1426 1.3379v-5.5293l7.334-4.3653v-7.1582l5.5879-1.2207s.69722-9.0804-.17578-11.176zm-24.207 97.912.49415 51.854-15.309 2.4688 1.4805-50.371zm-28.643 8.3945-.98633 49.879-10.371 3.4571-1.9766-50.373z" style="stroke-linecap:round;stroke-linejoin:round;stroke-width:3;stroke:#000"/>
        <path d="m-694.9-1505.7 33.872 3.8411 1.3968 51.681-35.967 1.3968z" style="stroke-width:1px;stroke:#000"/>
        <path d="m-687.92-1330.8 26.19-2.0952 2.0952 69.141-27.587 2.7935z" style="stroke-width:1px;stroke:#000"/>
        <path d="m-679.59-1597.6.80268-1.483 5.1236-1.6049.49384-2.2223-1.5432-2.4692s-2.2367-8.4584-.49384-12.099c.55263-1.1544 2.4997-1.1466 3.0865-2.284.5001-.9694.0617-3.2717.0617-3.2717s-1.3042-.3864-1.605-.9259c-.66165-1.1867.12346-4.0742.12346-4.0742-13.001-15.093-21.888-9.9762-29.507.8642 0 0-1.4549 3.8981-.86422 5.7409.56852 1.7737 3.1602 2.2984 3.889 4.0125 1.6435 3.8652.43211 12.593.43211 12.593l-2.0371 1.7901.6768 2.5034z" style="stroke-width:1px;stroke:#000"/>
      </g>
      <g transform="matrix(.74261 0 0 .74261 1362.3 1531.2)">
        <path d="m-536.06-1516-24.199 3.209-23.826 2.4687-1.1113 3.0879-50.373-5.4336.49415 297.79 46.916-6.9141 34.074 11.359 15.432 2.4688 3.8281-1.2344 3.209-257.04.24805-48.644zm-8.8887 19.629.49219 20.742-5.4316 1.4805-.2461-21.728zm-21.236.9883-.49414 23.457-5.4316-.4941v-22.223zm9.3828 0 1.7285 21.977-6.1719.4921.2461-21.48zm5.9258 26.668h4.9395l.98828 21.975-4.9394.248zm-6.1719 1.7265.74023 20.248-4.9375-.4942-.98828-19.506zm-14.814.2481h4.6914l.74024 19.754-5.4316.9863z" style="stroke-width:1px;stroke:#000"/>
        <path d="m-716.55-1602.6.52343 1.0468c.873 2.0955.17578 11.176.17578 11.176l-5.5879 1.2207v7.1582l-7.334 4.3653v5.5293l3.1426-1.3379v375.74l-4.1895 4.8887-2.0957 24.443 177.83-32.604v-9.3828l-34.074-11.359-46.916 6.9141-.49415-297.79 50.373 5.4336 1.1113-3.0879 15.678-1.8515 8.1484-.6172-1.2344-41.236-15.432-2.9629-.98829-7.6543-9.1348-.9864.12305-7.2851-8.1484-3.0859-.3711-9.6309-54.445-7.9004z" style="fill:none;stroke-linecap:round;stroke-linejoin:round;stroke-width:3;stroke:#000"/>
        <path d="m-716.55-1602.6-54.475 28.459.52343 9.2539-6.1113 3.666-.17383 5.414-6.8633 2.793v4.293l-22.295 9.5v18.158l4.8887 2.793-.69922 280.06-2.793 2.7949-.69727 14.666 73.33 52.379 2.0957-24.443 4.1895-4.8887v-375.74l-3.1426 1.3379v-5.5293l7.334-4.3653v-7.1582l5.5879-1.2207s.69722-9.0804-.17578-11.176zm-24.207 97.912.49415 51.854-15.309 2.4688 1.4805-50.371zm-28.643 8.3945-.98633 49.879-10.371 3.4571-1.9766-50.373z" style="stroke-linecap:round;stroke-linejoin:round;stroke-width:3;stroke:#000"/>
        <path d="m-694.9-1505.7 33.872 3.8411 1.3968 51.681-35.967 1.3968z" style="stroke-width:1px;stroke:#000"/>
        <path d="m-687.92-1330.8 26.19-2.0952 2.0952 69.141-27.587 2.7935z" style="stroke-width:1px;stroke:#000"/>
        <path d="m-679.59-1597.6.80268-1.483 5.1236-1.6049.49384-2.2223-1.5432-2.4692s-2.2367-8.4584-.49384-12.099c.55263-1.1544 2.4997-1.1466 3.0865-2.284.5001-.9694.0617-3.2717.0617-3.2717s-1.3042-.3864-1.605-.9259c-.66165-1.1867.12346-4.0742.12346-4.0742-13.001-15.093-21.888-9.9762-29.507.8642 0 0-1.4549 3.8981-.86422 5.7409.56852 1.7737 3.1602 2.2984 3.889 4.0125 1.6435 3.8652.43211 12.593.43211 12.593l-2.0371 1.7901.6768 2.5034z" style="stroke-width:1px;stroke:#000"/>
      </g>
      <g transform="matrix(-.74265 0 0 .74265 122.52 1531.3)">
        <path d="m-536.06-1516-24.199 3.209-23.826 2.4687-1.1113 3.0879-50.373-5.4336.49415 297.79 46.916-6.9141 34.074 11.359 15.432 2.4688 3.8281-1.2344 3.209-257.04.24805-48.644zm-8.8887 19.629.49219 20.742-5.4316 1.4805-.2461-21.728zm-21.236.9883-.49414 23.457-5.4316-.4941v-22.223zm9.3828 0 1.7285 21.977-6.1719.4921.2461-21.48zm5.9258 26.668h4.9395l.98828 21.975-4.9394.248zm-6.1719 1.7265.74023 20.248-4.9375-.4942-.98828-19.506zm-14.814.2481h4.6914l.74024 19.754-5.4316.9863z" style="stroke-width:1px;stroke:#000"/>
        <path d="m-716.55-1602.6.52343 1.0468c.873 2.0955.17578 11.176.17578 11.176l-5.5879 1.2207v7.1582l-7.334 4.3653v5.5293l3.1426-1.3379v375.74l-4.1895 4.8887-2.0957 24.443 177.83-32.604v-9.3828l-34.074-11.359-46.916 6.9141-.49415-297.79 50.373 5.4336 1.1113-3.0879 15.678-1.8515 8.1484-.6172-1.2344-41.236-15.432-2.9629-.98829-7.6543-9.1348-.9864.12305-7.2851-8.1484-3.0859-.3711-9.6309-54.445-7.9004z" style="fill:none;stroke-linecap:round;stroke-linejoin:round;stroke-width:3;stroke:#000"/>
        <path d="m-716.55-1602.6-54.475 28.459.52343 9.2539-6.1113 3.666-.17383 5.414-6.8633 2.793v4.293l-22.295 9.5v18.158l4.8887 2.793-.69922 280.06-2.793 2.7949-.69727 14.666 73.33 52.379 2.0957-24.443 4.1895-4.8887v-375.74l-3.1426 1.3379v-5.5293l7.334-4.3653v-7.1582l5.5879-1.2207s.69722-9.0804-.17578-11.176zm-24.207 97.912.49415 51.854-15.309 2.4688 1.4805-50.371zm-28.643 8.3945-.98633 49.879-10.371 3.4571-1.9766-50.373z" style="stroke-linecap:round;stroke-linejoin:round;stroke-width:3;stroke:#000"/>
        <path d="m-694.9-1505.7 33.872 3.8411 1.3968 51.681-35.967 1.3968z" style="stroke-width:1px;stroke:#000"/>
        <path d="m-687.92-1330.8 26.19-2.0952 2.0952 69.141-27.587 2.7935z" style="stroke-width:1px;stroke:#000"/>
        <path d="m-679.59-1597.6.80268-1.483 5.1236-1.6049.49384-2.2223-1.5432-2.4692s-2.2367-8.4584-.49384-12.099c.55263-1.1544 2.4997-1.1466 3.0865-2.284.5001-.9694.0617-3.2717.0617-3.2717s-1.3042-.3864-1.605-.9259c-.66165-1.1867.12346-4.0742.12346-4.0742-13.001-15.093-21.888-9.9762-29.507.8642 0 0-1.4549 3.8981-.86422 5.7409.56852 1.7737 3.1602 2.2984 3.889 4.0125 1.6435 3.8652.43211 12.593.43211 12.593l-2.0371 1.7901.6768 2.5034z" style="stroke-width:1px;stroke:#000"/>
      </g>
    </g>
    <g transform="matrix(1.0666 0 0 1.0666 28.686 660.09)">
      <g transform="matrix(.93789 0 0 .93789 -27.189 23.357)">
        <g transform="matrix(1.6745 0 0 1.6745 2216.1 1558.2)">
          <path d="m-1275.2-862.77v.002-.002zm0 .002c-14.597 2.5582-28.224 7.446-40.494 15.588-3.9358 5.1102-7.7723 11.473-6.9141 17.777.5612 4.1227 2.2527 7.6803 4.1973 11.111l3.3574 2.0176c-.5485-3.404-.1875-6.8774.9629-10.412 3.4569-3.3006 7.5709-1.4932 10.371 1.2344 7.0534 6.8704 9.2784 15.686 12.924 23.756l15.561 4.3672c-1.5035-1.8535-12.916-16.098-15.434-25.266-1.3732-5.0009.2461-15.555.2461-15.555 3.8495-10.655 8.767-19.176 15.223-24.619zm-7.4766 3.5254c-4.6173 6.1853-7.5171 12.829-10.432 19.469l-21.082-3.3184 3.0547-4.9316c9.1097-4.5307 18.214-9.0728 28.459-11.219z" style="fill:none;stroke-linecap:round;stroke-linejoin:round;stroke-width:1.5;stroke:#000"/>
          <path d="m-1182.4-875.37c-21.325-.16069-43.548 6.3842-63.484 12.652l13.764 32.248c2.8112-.71646 5.7253-1.4597 8.5273-2.1738 16.832-4.9103 35.072-10.093 81.111-20.67 4.0909-1.0426 7.7751-1.9827 11.936-3.043-19.226-4.674-33.444-18.875-51.854-19.014zm.1875 5.7246c7.6319-.152 21.704 7.6394 34.703 14.107l-3.5781 1.6582s-5.1864-2.2217-7.9453-2.3574c-8.613-.42372-17.925.59602-25.404 4.8887-1.0731.61593-2.4434 2.7949-2.4434 2.7949-2.5492-2.3207-3.6997-5.5646-5.9355-8.0312-1.6328-1.8013-3.4376-3.4068-5.4141-4.8887 0 0 2.8939-.93264 3.1426-2.1836.2833-1.4251-2.3555-3.666-2.3555-3.666l13.793-2.1836c.4493-.0835.9287-.12854 1.4375-.13867z" style="stroke-linecap:round;stroke-linejoin:round;stroke:#000"/>
          <path d="m-1054-844.17-87.479 36.498-4.1972 19.752 4.748 18.705c7.1364-.45758 14.213-1.4357 19.203-3.3945 64.287-25.236 87.408-48.396 87.408-48.396v-8.8887l-8.8886-12.594zm9.5 3.4102 2.1601 2.2227-.8652 7.2832-4.5059 2.4707h-1.2344l-.123.74024-4.8164 2.5918-3.209-8.457zm-55.178 24.863.5235 11.393-10.432 5.8926-2.2266-.34961-12.572 6.6348-2.0938-11.174.5664-1.877 11.654-5.0644 1.2227.4375.7852-1.0918z" style="stroke-linecap:round;stroke-linejoin:round;stroke:#000"/>
          <path d="m-1241.9-907.74-5.7617 2.9688-8.5547.52539-11.699 4.1875-27.598 2.7051-.053.0156 4.8339 6.5078 29.686-1.0098 8.4961-.53516 9.6035-5.9375 2.4434-4.8887z" style="stroke-linecap:round;stroke-linejoin:round;stroke:#000"/>
          <path d="m-1225-868.72-26.174.49414-23.951 5.4316c-6.4987 5.4393-11.444 13.99-15.311 24.693 0 0-1.6193 10.554-.2461 15.555 2.6899 9.7961 15.977 25.953 15.977 25.953l-15.713-4.1719c-3.8942-8.303-6.0049-17.519-13.314-24.639-2.8002-2.7276-6.9141-4.535-10.371-1.2344-1.285 3.9483-1.5948 7.8218-.7402 11.605 1.6414 1.8124 2.4713 3.8961 2.7168 6.1738 1.1165 9.1584 4.5467 16.87 9.3828 23.703 2.7047 2.6286 4.0598 2.2214 5.9258 2.9629 6.4107-.6311 9.3935-1.4898 12.473-4.6914 1.8541-1.9278 3.6269-3.5358 2.5566-7.5938l69.592 22.348s9.5672 31.542 30.379 28.982c16.614-2.0431 20.953-15.016 20.953-15.016l38.062 3.4922c66.782-42.296 78.219-48.539 78.219-48.539-2.1763-1.299-4.2458-2.7166-4.3672-6.2988-1.4722 1.0084-3.0617 2.0689-4.7774 3.1797-1.727 1.118-3.5798 2.2865-5.5624 3.498s-4.0949 2.4671-6.3418 3.7617c-2.2468 1.2947-4.6285 2.6286-7.1485 3.9961-2.52 1.3675-5.1785 2.7673-7.9805 4.1973s-5.747 2.8888-8.8398 4.3711-6.3342 2.9894-9.7266 4.5137c-3.3923 1.5242-6.9357 3.0652-10.637 4.6211-3.7006 1.5558-7.5581 3.1258-11.576 4.7031-.6238.24481-1.2799.47436-1.9649.68946s-1.3984.41641-2.1367.60351c-1.4767.3744-3.0528.6936-4.6953.9668-1.6425.2733-3.3527.5009-5.0977.6875-1.745.1867-3.5245.33287-5.3086.44727-1.7026.1092-3.4097.18758-5.0918.24218-1.6821.055-3.3386.0857-4.9453.0977-3.2133.023-6.221-.028-8.8027-.10547-2.5818-.078-4.7394-.18188-6.25-.26758-1.5107-.086-2.375-.15234-2.375-.15234s-.2659-.52532-.7617-1.4492c-.4959-.9239-1.2207-2.2463-2.1426-3.8398-.9219-1.5934-2.0402-3.4579-3.3184-5.4668-.6391-1.0044-1.3179-2.045-2.0332-3.1055-.7149-1.0606-1.4657-2.1417-2.248-3.2266-.7824-1.0849-1.5966-2.1744-2.4375-3.252-.8409-1.0776-1.7089-2.1434-2.5996-3.1816-.8908-1.0383-1.8045-2.0483-2.7364-3.0156-.9318-.9673-1.8814-1.8913-2.8457-2.7559-.9642-.8645-1.9437-1.6704-2.9316-2.4004-.494-.365-.9901-.71171-1.4883-1.0371s-.9986-.62836-1.5-.91016-1.0043-.54109-1.5078-.77539-1.0072-.44415-1.5117-.62695c-.5046-.1827-1.0093-.3395-1.5137-.4668-.5044-.1272-1.0084-.22516-1.5117-.29296-.694-.093-1.3593-.15706-1.9961-.19336-.6368-.036-1.2443-.0434-1.8262-.0254-.5819.017-1.1385.059-1.6679.12696-.5293.068-1.0327.16119-1.5118.27539-.4791.1143-.9321.2507-1.3632.4082-.431.1574-.8393.33601-1.2247.53321-.3853.19709-.7498.41318-1.0918.64648-.3418.2334-.6621.484-.9628.75-.301.2661-.5818.5466-.8438.8418-.262.2953-.505.60488-.7305.92578-.2254.3209-.4338.65299-.625.99609-.1911.3431-.3642.6968-.5234 1.0586-.3184.7235-.5751 1.4806-.7793 2.2578s-.3566 1.574-.4648 2.377c-.1083.8029-.1725 1.6115-.2032 2.4121-.031.8006-.029 1.593 0 2.3633.029.7702.083 1.5186.1524 2.2305.07.7119.1558 1.3881.248 2.0137.1845 1.2511.3951 2.3015.5606 3.0391.1654.7376.2851 1.1621.2851 1.1621l-21.728-5.6777-.023-.0117-2.8672-19.945 8.543-23.43-14.047-32.916zm-31.201 15.635c1.4473-.026 2.8027.2989 3.9375 1.1543 3.1165 2.3493 1.3477 11.631 1.3477 11.631-1e-4 0-1.6591.51892-1.75 1.2246-.4163 3.2148 6.2832 7.4238 6.2832 7.4238l4.2773 9.3848-.086 10.039-5.3262 7.5078-8.8164 2.2695s-8.4748-9.4825-9.8028-15.43c-1.1218-5.0236-5.4292-9.9961-4.83-13.557.5051-2.8144 4.3778-3.1429 4.789-5.5527.496-2.9074-3.2304-8.2383-3.2304-8.2383.2718-2.0011 2.0107-3.5147 3.6855-4.4805 2.7083-1.5616 6.3373-3.3198 9.5215-3.377zm-49.029 35.756c4.5599.1314 7.1619 8.1664 8.0547 13.004.9767 5.2921 2.3947 14.6-2.9258 15.408-5.2743.8008-8.3612-8.1691-9.248-13.43-.8442-5.0078-1.7968-13.897 3.1816-14.9.3215-.065.6335-.091.9375-.082zm107.89 25.652v.004c7.8131.065 14.486 11.915 16.043 19.992 1.3312 6.9051-.5225 18.317-7.4063 19.754-7.6349 1.5943-14.271-9.2591-16.297-16.791-2.0273-7.5374-1.888-20.804 5.6797-22.715.5402-.1364 1.0758-.21317 1.6074-.23438.1246-.01.249-.01.373-.01z" style="stroke-linecap:round;stroke-linejoin:round;stroke:#000"/>
          <path d="m-1130.4-856.07c-64.105 14.501-80.054 19.657-101.73 25.926l-8.1484 23.457 2.4688 20.002 21.728 5.6778s-7.6376-27.189 14.568-24.197c16.105 2.1697 33.088 35.803 33.088 35.803s13.844 1.0589 27.465.18551l-4.7481-18.705 4.1973-19.752 87.478-36.498z" style="fill:none;stroke-linecap:round;stroke-linejoin:round;stroke-width:1.8;stroke:#000"/>
          <path d="m-1140.3-925.21-68.396 10.125-17.469 11.094-3.666 10.562 8.9804 23.514 17.176-3.6699 3.3731-22.982c13.913-10.119 30.482-16.253 47.656-21.48l11.606 6.4199 8.1484-4.9395zm-28.766 6.7285.123 2.3457-33.457 14.137-21.606 1.1113 16.543-11.852z" style="fill:none;stroke-linecap:round;stroke-linejoin:round;stroke-width:2;stroke:#000"/>
          <path d="m-1241.2-929.57-7.8574 4.0156 4.1914 7.1582-4.7149.3496-48.887 7.1582-9.7773 8.2051 4.7129 5.2383 7.1582-.87306.8398.97852 27.795-2.7246 11.699-4.1895 8.5547-.52343 5.7617-2.9688 1.3965 4.5391-2.4434 4.8887-9.6035 5.9375-8.4961.53517.289-.0117 9.7793 23.617 25.359-.47851 4.5723-1.1973-8.9805-23.514 7.332-21.125-.873-1.3984-9.9512-2.6172z" style="fill:none;stroke-linecap:round;stroke-linejoin:round;stroke-width:2;stroke:#000"/>
          <path d="m-1183.1-906.67s-.09 2.8985.9166 3.6431c8.3162 6.1508 5.5372-2.4649 30.991-1.5714 2.6585.0933 5.2811-1.9023 6.8966-4.0158.884-1.1565 1.1302-4.2181 1.1302-4.2181l-9.4319-5.2176-30.652 11.451" style="stroke-linecap:round;stroke-linejoin:round;stroke:#000"/>
        </g>
        <g transform="matrix(-1.6745 0 0 1.6745 -1216.1 1558)">
          <path d="m-1275.2-862.77v.002-.002zm0 .002c-14.597 2.5582-28.224 7.446-40.494 15.588-3.9358 5.1102-7.7723 11.473-6.9141 17.777.5612 4.1227 2.2527 7.6803 4.1973 11.111l3.3574 2.0176c-.5485-3.404-.1875-6.8774.9629-10.412 3.4569-3.3006 7.5709-1.4932 10.371 1.2344 7.0534 6.8704 9.2784 15.686 12.924 23.756l15.561 4.3672c-1.5035-1.8535-12.916-16.098-15.434-25.266-1.3732-5.0009.2461-15.555.2461-15.555 3.8495-10.655 8.767-19.176 15.223-24.619zm-7.4766 3.5254c-4.6173 6.1853-7.5171 12.829-10.432 19.469l-21.082-3.3184 3.0547-4.9316c9.1097-4.5307 18.214-9.0728 28.459-11.219z" style="fill:none;stroke-linecap:round;stroke-linejoin:round;stroke-width:1.5;stroke:#000"/>
          <path d="m-1182.4-875.37c-21.325-.16069-43.548 6.3842-63.484 12.652l13.764 32.248c2.8112-.71646 5.7253-1.4597 8.5273-2.1738 16.832-4.9103 35.072-10.093 81.111-20.67 4.0909-1.0426 7.7751-1.9827 11.936-3.043-19.226-4.674-33.444-18.875-51.854-19.014zm.1875 5.7246c7.6319-.152 21.704 7.6394 34.703 14.107l-3.5781 1.6582s-5.1864-2.2217-7.9453-2.3574c-8.613-.42372-17.925.59602-25.404 4.8887-1.0731.61593-2.4434 2.7949-2.4434 2.7949-2.5492-2.3207-3.6997-5.5646-5.9355-8.0312-1.6328-1.8013-3.4376-3.4068-5.4141-4.8887 0 0 2.8939-.93264 3.1426-2.1836.2833-1.4251-2.3555-3.666-2.3555-3.666l13.793-2.1836c.4493-.0835.9287-.12854 1.4375-.13867z" style="stroke-linecap:round;stroke-linejoin:round;stroke:#000"/>
          <path d="m-1054-844.17-87.479 36.498-4.1972 19.752 4.748 18.705c7.1364-.45758 14.213-1.4357 19.203-3.3945 64.287-25.236 87.408-48.396 87.408-48.396v-8.8887l-8.8886-12.594zm9.5 3.4102 2.1601 2.2227-.8652 7.2832-4.5059 2.4707h-1.2344l-.123.74024-4.8164 2.5918-3.209-8.457zm-55.178 24.863.5235 11.393-10.432 5.8926-2.2266-.34961-12.572 6.6348-2.0938-11.174.5664-1.877 11.654-5.0644 1.2227.4375.7852-1.0918z" style="stroke-linecap:round;stroke-linejoin:round;stroke:#000"/>
          <path d="m-1241.9-907.74-5.7617 2.9688-8.5547.52539-11.699 4.1875-27.598 2.7051-.053.0156 4.8339 6.5078 29.686-1.0098 8.4961-.53516 9.6035-5.9375 2.4434-4.8887z" style="stroke-linecap:round;stroke-linejoin:round;stroke:#000"/>
          <path d="m-1225-868.72-26.174.49414-23.951 5.4316c-6.4987 5.4393-11.444 13.99-15.311 24.693 0 0-1.6193 10.554-.2461 15.555 2.6899 9.7961 15.977 25.953 15.977 25.953l-15.713-4.1719c-3.8942-8.303-6.0049-17.519-13.314-24.639-2.8002-2.7276-6.9141-4.535-10.371-1.2344-1.285 3.9483-1.5948 7.8218-.7402 11.605 1.6414 1.8124 2.4713 3.8961 2.7168 6.1738 1.1165 9.1584 4.5467 16.87 9.3828 23.703 2.7047 2.6286 4.0598 2.2214 5.9258 2.9629 6.4107-.6311 9.3935-1.4898 12.473-4.6914 1.8541-1.9278 3.6269-3.5358 2.5566-7.5938l69.592 22.348s9.5672 31.542 30.379 28.982c16.614-2.0431 20.953-15.016 20.953-15.016l38.062 3.4922c66.782-42.296 78.219-48.539 78.219-48.539-2.1763-1.299-4.2458-2.7166-4.3672-6.2988-1.4722 1.0084-3.0617 2.0689-4.7774 3.1797-1.727 1.118-3.5798 2.2865-5.5624 3.498s-4.0949 2.4671-6.3418 3.7617c-2.2468 1.2947-4.6285 2.6286-7.1485 3.9961-2.52 1.3675-5.1785 2.7673-7.9805 4.1973s-5.747 2.8888-8.8398 4.3711-6.3342 2.9894-9.7266 4.5137c-3.3923 1.5242-6.9357 3.0652-10.637 4.6211-3.7006 1.5558-7.5581 3.1258-11.576 4.7031-.6238.24481-1.2799.47436-1.9649.68946s-1.3984.41641-2.1367.60351c-1.4767.3744-3.0528.6936-4.6953.9668-1.6425.2733-3.3527.5009-5.0977.6875-1.745.1867-3.5245.33287-5.3086.44727-1.7026.1092-3.4097.18758-5.0918.24218-1.6821.055-3.3386.0857-4.9453.0977-3.2133.023-6.221-.028-8.8027-.10547-2.5818-.078-4.7394-.18188-6.25-.26758-1.5107-.086-2.375-.15234-2.375-.15234s-.2659-.52532-.7617-1.4492c-.4959-.9239-1.2207-2.2463-2.1426-3.8398-.9219-1.5934-2.0402-3.4579-3.3184-5.4668-.6391-1.0044-1.3179-2.045-2.0332-3.1055-.7149-1.0606-1.4657-2.1417-2.248-3.2266-.7824-1.0849-1.5966-2.1744-2.4375-3.252-.8409-1.0776-1.7089-2.1434-2.5996-3.1816-.8908-1.0383-1.8045-2.0483-2.7364-3.0156-.9318-.9673-1.8814-1.8913-2.8457-2.7559-.9642-.8645-1.9437-1.6704-2.9316-2.4004-.494-.365-.9901-.71171-1.4883-1.0371s-.9986-.62836-1.5-.91016-1.0043-.54109-1.5078-.77539-1.0072-.44415-1.5117-.62695c-.5046-.1827-1.0093-.3395-1.5137-.4668-.5044-.1272-1.0084-.22516-1.5117-.29296-.694-.093-1.3593-.15706-1.9961-.19336-.6368-.036-1.2443-.0434-1.8262-.0254-.5819.017-1.1385.059-1.6679.12696-.5293.068-1.0327.16119-1.5118.27539-.4791.1143-.9321.2507-1.3632.4082-.431.1574-.8393.33601-1.2247.53321-.3853.19709-.7498.41318-1.0918.64648-.3418.2334-.6621.484-.9628.75-.301.2661-.5818.5466-.8438.8418-.262.2953-.505.60488-.7305.92578-.2254.3209-.4338.65299-.625.99609-.1911.3431-.3642.6968-.5234 1.0586-.3184.7235-.5751 1.4806-.7793 2.2578s-.3566 1.574-.4648 2.377c-.1083.8029-.1725 1.6115-.2032 2.4121-.031.8006-.029 1.593 0 2.3633.029.7702.083 1.5186.1524 2.2305.07.7119.1558 1.3881.248 2.0137.1845 1.2511.3951 2.3015.5606 3.0391.1654.7376.2851 1.1621.2851 1.1621l-21.728-5.6777-.023-.0117-2.8672-19.945 8.543-23.43-14.047-32.916zm-31.201 15.635c1.4473-.026 2.8027.2989 3.9375 1.1543 3.1165 2.3493 1.3477 11.631 1.3477 11.631-1e-4 0-1.6591.51892-1.75 1.2246-.4163 3.2148 6.2832 7.4238 6.2832 7.4238l4.2773 9.3848-.086 10.039-5.3262 7.5078-8.8164 2.2695s-8.4748-9.4825-9.8028-15.43c-1.1218-5.0236-5.4292-9.9961-4.83-13.557.5051-2.8144 4.3778-3.1429 4.789-5.5527.496-2.9074-3.2304-8.2383-3.2304-8.2383.2718-2.0011 2.0107-3.5147 3.6855-4.4805 2.7083-1.5616 6.3373-3.3198 9.5215-3.377zm-49.029 35.756c4.5599.1314 7.1619 8.1664 8.0547 13.004.9767 5.2921 2.3947 14.6-2.9258 15.408-5.2743.8008-8.3612-8.1691-9.248-13.43-.8442-5.0078-1.7968-13.897 3.1816-14.9.3215-.065.6335-.091.9375-.082zm107.89 25.652v.004c7.8131.065 14.486 11.915 16.043 19.992 1.3312 6.9051-.5225 18.317-7.4063 19.754-7.6349 1.5943-14.271-9.2591-16.297-16.791-2.0273-7.5374-1.888-20.804 5.6797-22.715.5402-.1364 1.0758-.21317 1.6074-.23438.1246-.01.249-.01.373-.01z" style="stroke-linecap:round;stroke-linejoin:round;stroke:#000"/>
          <path d="m-1130.4-856.07c-64.105 14.501-80.054 19.657-101.73 25.926l-8.1484 23.457 2.4688 20.002 21.728 5.6778s-7.6376-27.189 14.568-24.197c16.105 2.1697 33.088 35.803 33.088 35.803s13.844 1.0589 27.465.18551l-4.7481-18.705 4.1973-19.752 87.478-36.498z" style="fill:none;stroke-linecap:round;stroke-linejoin:round;stroke-width:1.8;stroke:#000"/>
          <path d="m-1140.3-925.21-68.396 10.125-17.469 11.094-3.666 10.562 8.9804 23.514 17.176-3.6699 3.3731-22.982c13.913-10.119 30.482-16.253 47.656-21.48l11.606 6.4199 8.1484-4.9395zm-28.766 6.7285.123 2.3457-33.457 14.137-21.606 1.1113 16.543-11.852z" style="fill:none;stroke-linecap:round;stroke-linejoin:round;stroke-width:2;stroke:#000"/>
          <path d="m-1241.2-929.57-7.8574 4.0156 4.1914 7.1582-4.7149.3496-48.887 7.1582-9.7773 8.2051 4.7129 5.2383 7.1582-.87306.8398.97852 27.795-2.7246 11.699-4.1895 8.5547-.52343 5.7617-2.9688 1.3965 4.5391-2.4434 4.8887-9.6035 5.9375-8.4961.53517.289-.0117 9.7793 23.617 25.359-.47851 4.5723-1.1973-8.9805-23.514 7.332-21.125-.873-1.3984-9.9512-2.6172z" style="fill:none;stroke-linecap:round;stroke-linejoin:round;stroke-width:2;stroke:#000"/>
          <path d="m-1183.1-906.67s-.09 2.8985.9166 3.6431c8.3162 6.1508 5.5372-2.4649 30.991-1.5714 2.6585.0933 5.2811-1.9023 6.8966-4.0158.884-1.1565 1.1302-4.2181 1.1302-4.2181l-9.4319-5.2176-30.652 11.451" style="stroke-linecap:round;stroke-linejoin:round;stroke:#000"/>
        </g>
      </g>
    </g>
  </g>
</svg>
